<?xml version="1.0" encoding="utf-8"?>
<!-- Generator: Adobe Illustrator 25.0.0, SVG Export Plug-In . SVG Version: 6.00 Build 0)  -->
<svg version="1.1" id="Layer_1" xmlns="http://www.w3.org/2000/svg" xmlns:xlink="http://www.w3.org/1999/xlink" x="0px" y="0px"
	 viewBox="0 0 1000 1000" style="enable-background:new 0 0 1000 1000;" xml:space="preserve">
<style type="text/css">
	.st0{display:none;}
	.st1{display:inline;}
	.st2{display:inline;fill:#FFFFFF;stroke:#000000;stroke-miterlimit:10;}
	.st3{fill:#1B4BE2;}
	.st4{enable-background:new    ;}
	.st5{display:inline;fill:#1B4BE2;}
	.st6{display:inline;fill:#A9E2FF;}
	.st7{display:inline;fill:#FFFFFF;}
</style>
<g class="st0">
	<path class="st1" d="M568.4,647.58H431.6c-43.73,0-79.18-35.45-79.18-79.18V431.6c0-43.73,35.45-79.18,79.18-79.18h136.8
		c43.73,0,79.18,35.45,79.18,79.18v136.8C647.58,612.13,612.13,647.58,568.4,647.58z"/>
	<path class="st2" d="M582.78,535.19l-11.43,11.47c-46.36-13.58-95.92-13.31-142.15,0.79l-11.99-11.95l82.63-82.94L582.78,535.19z"
		/>
</g>
<g>
	<path class="st3" d="M564.04,446.27l-9.33,9.36c-37.84-11.09-78.31-10.87-116.04,0.64l-9.79-9.75l67.45-67.7L564.04,446.27z"/>
	<g class="st4">
		<path class="st3" d="M336.28,550.03h23.24v11.22h-37.39v-70.54h14.15V550.03z"/>
		<path class="st3" d="M421.38,505.26v55.99h-14.25v-7.07c-1.82,2.43-4.19,4.33-7.12,5.71s-6.11,2.07-9.55,2.07
			c-4.38,0-8.25-0.92-11.62-2.78c-3.37-1.85-6.01-4.58-7.93-8.19c-1.92-3.6-2.88-7.9-2.88-12.89v-32.85h14.15v30.82
			c0,4.45,1.11,7.87,3.33,10.26c2.22,2.39,5.25,3.59,9.1,3.59c3.91,0,6.97-1.2,9.2-3.59c2.22-2.39,3.33-5.81,3.33-10.26v-30.82
			H421.38z"/>
		<path class="st3" d="M466.25,561.25l-11.52-17.38l-10.21,17.38h-15.16l18.29-28.1l-18.49-27.89h15.97l11.42,17.28l10.31-17.28
			h15.16l-18.39,27.89l18.6,28.1H466.25z"/>
		<path class="st3" d="M490.86,496.22c-1.65-1.58-2.48-3.55-2.48-5.91c0-2.36,0.82-4.33,2.48-5.91c1.65-1.58,3.72-2.38,6.21-2.38
			c2.49,0,4.56,0.79,6.22,2.38c1.65,1.58,2.48,3.55,2.48,5.91c0,2.36-0.83,4.33-2.48,5.91c-1.65,1.58-3.72,2.38-6.22,2.38
			C494.58,498.59,492.51,497.8,490.86,496.22z M504.04,505.26v55.99H489.9v-55.99H504.04z"/>
		<path class="st3" d="M550.94,506.83c3.17,1.65,5.66,3.79,7.48,6.42v-7.98h14.25v56.39c0,5.19-1.05,9.82-3.13,13.9
			c-2.09,4.08-5.22,7.31-9.4,9.7c-4.18,2.39-9.23,3.59-15.16,3.59c-7.95,0-14.47-1.85-19.56-5.56c-5.09-3.71-7.97-8.76-8.64-15.16
			h14.05c0.74,2.56,2.34,4.6,4.8,6.11c2.46,1.52,5.44,2.27,8.94,2.27c4.11,0,7.44-1.23,10.01-3.69c2.56-2.46,3.84-6.18,3.84-11.17
			v-8.69c-1.82,2.63-4.33,4.82-7.53,6.57c-3.2,1.75-6.86,2.63-10.96,2.63c-4.72,0-9.03-1.21-12.94-3.64
			c-3.91-2.43-6.99-5.84-9.25-10.26c-2.26-4.41-3.39-9.48-3.39-15.21c0-5.66,1.13-10.68,3.39-15.06c2.26-4.38,5.32-7.75,9.2-10.11
			c3.87-2.36,8.2-3.54,12.99-3.54C544.1,504.35,547.77,505.18,550.94,506.83z M556.39,524.41c-1.35-2.46-3.17-4.35-5.46-5.66
			c-2.29-1.31-4.75-1.97-7.38-1.97c-2.63,0-5.05,0.64-7.28,1.92c-2.22,1.28-4.03,3.15-5.41,5.61c-1.38,2.46-2.07,5.37-2.07,8.74
			c0,3.37,0.69,6.32,2.07,8.84s3.2,4.46,5.46,5.81c2.26,1.35,4.66,2.02,7.23,2.02c2.63,0,5.09-0.66,7.38-1.97
			c2.29-1.31,4.11-3.2,5.46-5.66c1.35-2.46,2.02-5.41,2.02-8.84C558.42,529.82,557.74,526.87,556.39,524.41z"/>
		<path class="st3" d="M607.78,506.98c2.93-1.68,6.28-2.53,10.06-2.53v14.86h-3.74c-4.45,0-7.8,1.05-10.06,3.13
			c-2.26,2.09-3.39,5.73-3.39,10.92v27.89h-14.15v-55.99h14.15v8.69C602.48,510.99,604.85,508.66,607.78,506.98z"/>
		<path class="st3" d="M637.65,558.57c-4.31-2.39-7.7-5.78-10.16-10.16c-2.46-4.38-3.69-9.43-3.69-15.16
			c0-5.73,1.26-10.78,3.79-15.16c2.53-4.38,5.98-7.76,10.36-10.16c4.38-2.39,9.26-3.59,14.65-3.59c5.39,0,10.27,1.2,14.65,3.59
			c4.38,2.39,7.83,5.78,10.36,10.16c2.53,4.38,3.79,9.43,3.79,15.16c0,5.73-1.3,10.78-3.89,15.16c-2.59,4.38-6.1,7.77-10.51,10.16
			c-4.41,2.39-9.35,3.59-14.81,3.59C646.81,562.16,641.96,560.96,637.65,558.57z M659.43,547.96c2.26-1.25,4.06-3.12,5.41-5.61
			c1.35-2.49,2.02-5.52,2.02-9.1c0-5.32-1.4-9.41-4.19-12.28c-2.8-2.86-6.22-4.3-10.26-4.3c-4.04,0-7.43,1.43-10.16,4.3
			c-2.73,2.86-4.09,6.96-4.09,12.28c0,5.32,1.33,9.42,3.99,12.28c2.66,2.87,6.01,4.3,10.06,4.3
			C654.76,549.83,657.17,549.21,659.43,547.96z"/>
	</g>
</g>
<g id="color_palete" class="st0">
	<rect class="st5" width="1000" height="125.25"/>
	<rect y="125.25" class="st1" width="1000" height="248.64"/>
	<rect y="306.38" class="st6" width="1000" height="335.84"/>
	<rect y="642.22" class="st7" width="1000" height="335.84"/>
</g>
</svg>
