<svg width="47" height="47" viewBox="0 0 47 47" fill="none" xmlns="http://www.w3.org/2000/svg">
<rect width="47" height="47" rx="23.5" fill="#94FFBA"/>
<path d="M19 15.875H17.75C17.087 15.875 16.4511 16.1384 15.9822 16.6072C15.5134 17.0761 15.25 17.712 15.25 18.375V31.5C15.25 32.163 15.5134 32.7989 15.9822 33.2678C16.4511 33.7366 17.087 34 17.75 34H30.25C30.913 34 31.5489 33.7366 32.0178 33.2678C32.4866 32.7989 32.75 32.163 32.75 31.5V18.375C32.75 17.712 32.4866 17.0761 32.0178 16.6072C31.5489 16.1384 30.913 15.875 30.25 15.875H29V17.125H30.25C30.5815 17.125 30.8995 17.2567 31.1339 17.4911C31.3683 17.7255 31.5 18.0435 31.5 18.375V31.5C31.5 31.8315 31.3683 32.1495 31.1339 32.3839C30.8995 32.6183 30.5815 32.75 30.25 32.75H17.75C17.4185 32.75 17.1005 32.6183 16.8661 32.3839C16.6317 32.1495 16.5 31.8315 16.5 31.5V18.375C16.5 18.0435 16.6317 17.7255 16.8661 17.4911C17.1005 17.2567 17.4185 17.125 17.75 17.125H19V15.875Z" fill="black"/>
<path d="M25.875 15.25C26.0408 15.25 26.1997 15.3158 26.3169 15.4331C26.4342 15.5503 26.5 15.7092 26.5 15.875V17.125C26.5 17.2908 26.4342 17.4497 26.3169 17.5669C26.1997 17.6842 26.0408 17.75 25.875 17.75H22.125C21.9592 17.75 21.8003 17.6842 21.6831 17.5669C21.5658 17.4497 21.5 17.2908 21.5 17.125V15.875C21.5 15.7092 21.5658 15.5503 21.6831 15.4331C21.8003 15.3158 21.9592 15.25 22.125 15.25H25.875ZM22.125 14C21.6277 14 21.1508 14.1975 20.7992 14.5492C20.4475 14.9008 20.25 15.3777 20.25 15.875V17.125C20.25 17.6223 20.4475 18.0992 20.7992 18.4508C21.1508 18.8025 21.6277 19 22.125 19H25.875C26.3723 19 26.8492 18.8025 27.2008 18.4508C27.5525 18.0992 27.75 17.6223 27.75 17.125V15.875C27.75 15.3777 27.5525 14.9008 27.2008 14.5492C26.8492 14.1975 26.3723 14 25.875 14H22.125Z" fill="black"/>
</svg>
