<?xml version="1.0" encoding="utf-8"?>
<!-- Generator: Adobe Illustrator 25.0.1, SVG Export Plug-In . SVG Version: 6.00 Build 0)  -->
<svg version="1.1" id="Layer_1" xmlns="http://www.w3.org/2000/svg" xmlns:xlink="http://www.w3.org/1999/xlink" x="0px" y="0px"
	 viewBox="0 0 4000 4000" style="enable-background:new 0 0 4000 4000;" xml:space="preserve">
<style type="text/css">
	.st0{fill:#CEEDFF;}
	.st1{fill:#0871F7;}
	.st2{fill:#FFFFFF;}
	.st3{fill:#2D02A7;}
	.st4{fill:#FF0068;}
	.st5{fill:#25BEEF;}
	.st6{fill:#FEBB24;}
	.st7{fill:#8EDB53;}
	.st8{fill:#D4EDFA;}
	.st9{fill:#E1F2FB;}
	.st10{fill:#EEF8FD;}
</style>
<g>
	<g>
		<path class="st0" d="M2699.41,1762.92c9.55-3.38,16.43-12.47,18.27-22.97c8.95-51.23,51.41-90.04,102.45-90.04
			c30.08,0,57.07,13.55,76.03,35.14c12.57,14.32,30.12,21.7,48.51,20.18c8.19-0.68,16.79,0.08,25.69,2.66
			c30.74,8.89,53.65,35.77,57.53,69.31c5.82,50.29-31.13,93.06-77.53,93.06c-23.99,0-102.84,0-130.23,0h-102.06
			c-25.14,0-48.36-17.82-53.19-43.98C2659.53,1797.32,2675.66,1771.32,2699.41,1762.92z"/>
	</g>
	<g>
		<path class="st1" d="M2752.34,2009.87V2002c80.71,0,146.38-65.67,146.38-146.38v-211.23c0-85.06,69.18-154.25,154.22-154.25h20.92
			c125.09,0,226.84-101.78,226.84-226.87s-101.75-226.86-226.84-226.86h-256.22v-7.87h256.22c129.43,0,234.72,105.3,234.72,234.73
			c0,129.45-105.29,234.75-234.72,234.75h-20.92c-80.71,0-146.35,65.67-146.35,146.38v211.23
			C2906.59,1940.67,2837.39,2009.87,2752.34,2009.87z"/>
	</g>
	<g>
		<path class="st0" d="M1132.63,2488.58c12.76-4.51,21.95-16.65,24.4-30.68c11.95-68.44,68.68-120.28,136.85-120.28
			c40.18,0,76.24,18.1,101.56,46.95c16.79,19.13,40.23,28.99,64.8,26.96c10.94-0.91,22.42,0.11,34.32,3.55
			c41.07,11.88,71.66,47.78,76.85,92.59c7.77,67.18-41.59,124.31-103.57,124.31c-32.05,0-137.38,0-173.96,0h-136.33
			c-33.58,0-64.6-23.8-71.05-58.75C1079.36,2534.54,1100.9,2499.8,1132.63,2488.58z"/>
	</g>
	<g>
		<path class="st0" d="M1398.68,1136.62c11.22-3.97,19.3-14.65,21.46-26.98c10.51-60.18,60.39-105.77,120.34-105.77
			c35.33,0,67.05,15.91,89.31,41.28c14.76,16.82,35.38,25.5,56.98,23.71c9.62-0.8,19.72,0.09,30.18,3.12
			c36.12,10.45,63.02,42.02,67.58,81.42c6.84,59.08-36.57,109.32-91.08,109.32c-28.18,0-120.81,0-152.98,0H1420.6
			c-29.53,0-56.81-20.93-62.48-51.67C1351.83,1177.03,1370.78,1146.48,1398.68,1136.62z"/>
	</g>
	<g>
		<path class="st0" d="M3161.9,2350.74c12.76-4.51,21.95-16.65,24.4-30.68c11.95-68.44,68.68-120.28,136.85-120.28
			c40.18,0,76.24,18.1,101.56,46.95c16.79,19.13,40.23,28.99,64.8,26.96c10.94-0.91,22.42,0.11,34.32,3.55
			c41.07,11.88,71.66,47.78,76.85,92.59c7.77,67.18-41.59,124.31-103.57,124.31c-32.05,0-137.38,0-173.96,0h-136.33
			c-33.58,0-64.6-23.8-71.05-58.75C3108.63,2396.69,3130.17,2361.96,3161.9,2350.74z"/>
	</g>
	<g>
		<circle class="st0" cx="2226.2" cy="2021.68" r="533.43"/>
	</g>
	<g>
		<g>
			<path class="st2" d="M1884.43,955.11c27.1-9.59,46.62-35.37,51.83-65.16c25.38-145.36,145.86-255.46,290.66-255.46
				c85.34,0,161.93,38.43,215.71,99.71c35.65,40.62,85.44,61.58,137.62,57.25c23.24-1.93,47.63,0.23,72.9,7.54
				c87.23,25.23,152.21,101.48,163.22,196.65c16.51,142.69-89.48,264.03-221.11,264.03h-657.88c-71.33,0-137.21-50.56-150.91-124.79
				C1771.29,1052.71,1817.04,978.94,1884.43,955.11z"/>
			<path class="st1" d="M1786.45,1134.87c-15.16-82.17,30.59-155.93,97.98-179.76c27.11-9.59,46.62-35.37,51.83-65.17
				c25.38-145.36,145.86-255.46,290.65-255.46h-90.77c-144.79,0-265.28,110.1-290.66,255.46c-5.21,29.79-24.72,55.58-51.83,65.17
				c-67.38,23.83-113.14,97.6-97.98,179.76c13.7,74.23,79.58,124.79,150.92,124.79h90.77
				C1866.04,1259.66,1800.15,1209.1,1786.45,1134.87z"/>
			<path class="st3" d="M1937.37,1259.66c-11.05,0-21.86-1.6-32.48-3.93h-58.29c-72.21,0-134.04-51.12-147.04-121.56
				c-14.23-77.03,25.91-150.78,95.41-175.35c27.93-9.87,48.77-36,54.38-68.19c25.53-146.13,146.15-252.2,286.78-252.2h45.34
				c14.84-2.43,29.97-3.93,45.45-3.93c1.33,0,2.62,0.2,3.96,0.22l0.3-4.16h-95.04c-144.47,0-268.35,108.81-294.53,258.72
				c-5.14,29.39-24.01,53.2-49.24,62.13c-73.19,25.87-115.47,103.33-100.55,184.18c13.7,74.17,78.79,128.02,154.79,128.02h336.53
				l0.3-3.94H1937.37z"/>
			<path class="st3" d="M2595.26,1263.6h-657.89c-76,0-141.09-53.84-154.79-128.02c-14.92-80.85,27.36-158.31,100.55-184.18
				l1.31,3.71l-1.31-3.71c25.25-8.94,44.12-32.74,49.26-62.13c26.16-149.92,150.04-258.72,294.54-258.72
				c83.82,0,161.45,35.9,218.66,101.06c34.88,39.76,84.31,60.13,134.32,55.92c24.73-2.03,49.64,0.54,74.34,7.69
				c89.81,25.98,154.99,104.47,166,199.98c8.21,70.79-13.53,141.07-59.64,192.81C2717.83,1236.04,2657.54,1263.6,2595.26,1263.6z
				 M2226.93,638.42c-140.66,0-261.29,106.07-286.79,252.2c-5.61,32.19-26.45,58.32-54.4,68.19l0,0
				c-69.5,24.58-109.64,98.32-95.41,175.35c13,70.44,74.84,121.56,147.04,121.56h657.89c60.04,0,118.17-26.59,159.48-72.96
				c44.6-50.06,65.64-118.11,57.7-186.69c-10.67-92.34-73.6-168.22-160.4-193.3c-23.68-6.87-47.74-9.37-71.45-7.41
				c-53.33,4.4-104.39-16.95-140.9-58.56C2383.98,673.36,2308.44,638.42,2226.93,638.42z"/>
		</g>
	</g>
	<g>
		<g>
			<path class="st2" d="M2752.47,2641.58c27.1-9.58,46.62-35.37,51.83-65.16c25.38-145.36,145.86-255.46,290.66-255.46
				c85.34,0,161.93,38.43,215.71,99.71c35.65,40.62,85.44,61.58,137.62,57.25c23.24-1.93,47.63,0.23,72.9,7.54
				c87.23,25.23,152.21,101.48,163.22,196.65c16.51,142.69-89.48,264.03-221.11,264.03h-657.88c-71.33,0-137.21-50.56-150.91-124.79
				C2639.33,2739.18,2685.09,2665.41,2752.47,2641.58z"/>
			<path class="st1" d="M2654.49,2821.34c-15.16-82.17,30.59-155.93,97.98-179.76c27.11-9.59,46.62-35.37,51.83-65.17
				c25.38-145.36,145.86-255.46,290.66-255.46h-90.77c-144.79,0-265.28,110.1-290.66,255.46c-5.21,29.79-24.72,55.58-51.83,65.17
				c-67.38,23.83-113.14,97.6-97.98,179.76c13.7,74.23,79.58,124.79,150.92,124.79h90.77
				C2734.08,2946.13,2668.19,2895.57,2654.49,2821.34z"/>
			<path class="st3" d="M2805.41,2946.13c-11.05,0-21.86-1.6-32.48-3.93h-58.29c-72.21,0-134.04-51.12-147.04-121.56
				c-14.23-77.03,25.91-150.78,95.41-175.35c27.93-9.87,48.77-36,54.38-68.19c25.53-146.13,146.15-252.2,286.78-252.2h45.34
				c14.84-2.43,29.97-3.93,45.45-3.93c1.33,0,2.62,0.2,3.96,0.22l0.3-4.16h-95.04c-144.47,0-268.35,108.81-294.53,258.72
				c-5.14,29.39-24.01,53.2-49.24,62.13c-73.19,25.87-115.47,103.33-100.55,184.18c13.7,74.17,78.79,128.02,154.79,128.02h336.53
				l0.3-3.94H2805.41z"/>
			<path class="st3" d="M3463.3,2950.07h-657.89c-76,0-141.09-53.84-154.79-128.02c-14.92-80.85,27.36-158.31,100.55-184.18
				l1.31,3.71l-1.31-3.71c25.25-8.94,44.12-32.74,49.26-62.13c26.16-149.92,150.04-258.72,294.54-258.72
				c83.82,0,161.45,35.9,218.66,101.06c34.88,39.76,84.31,60.13,134.32,55.92c24.73-2.03,49.64,0.54,74.34,7.69
				c89.81,25.98,154.99,104.47,166,199.98c8.21,70.79-13.53,141.07-59.64,192.81C3585.87,2922.51,3525.58,2950.07,3463.3,2950.07z
				 M3094.97,2324.89c-140.66,0-261.29,106.07-286.79,252.2c-5.61,32.19-26.45,58.32-54.4,68.19l0,0
				c-69.5,24.58-109.64,98.32-95.41,175.35c13,70.44,74.83,121.56,147.04,121.56h657.89c60.04,0,118.17-26.59,159.48-72.96
				c44.6-50.06,65.64-118.11,57.7-186.69c-10.67-92.34-73.6-168.22-160.4-193.3c-23.68-6.87-47.74-9.37-71.45-7.41
				c-53.33,4.4-104.39-16.95-140.9-58.56C3252.02,2359.83,3176.48,2324.89,3094.97,2324.89z"/>
		</g>
	</g>
	<g>
		<g>
			<path class="st2" d="M553.42,1628.79c27.1-9.58,46.62-35.37,51.83-65.16c25.38-145.36,145.86-255.46,290.66-255.46
				c85.34,0,161.93,38.43,215.71,99.71c35.65,40.62,85.44,61.58,137.62,57.25c23.24-1.93,47.63,0.23,72.9,7.54
				c87.23,25.23,152.21,101.48,163.22,196.65c16.51,142.69-89.48,264.03-221.11,264.03H606.36c-71.33,0-137.21-50.56-150.91-124.79
				C440.28,1726.39,486.04,1652.62,553.42,1628.79z"/>
			<path class="st1" d="M455.44,1808.55c-15.16-82.17,30.59-155.93,97.98-179.76c27.11-9.59,46.62-35.37,51.83-65.17
				c25.38-145.36,145.86-255.46,290.65-255.46h-90.77c-144.79,0-265.28,110.1-290.66,255.46c-5.21,29.79-24.72,55.58-51.83,65.17
				c-67.38,23.83-113.14,97.6-97.98,179.76c13.7,74.23,79.58,124.79,150.92,124.79h90.77
				C535.03,1933.34,469.15,1882.78,455.44,1808.55z"/>
			<path class="st3" d="M606.36,1933.34c-11.05,0-21.86-1.6-32.48-3.93h-58.29c-72.21,0-134.04-51.12-147.04-121.56
				c-14.23-77.03,25.91-150.78,95.41-175.35c27.93-9.87,48.77-36,54.38-68.19c25.53-146.13,146.15-252.2,286.78-252.2h45.34
				c14.84-2.43,29.97-3.93,45.45-3.93c1.33,0,2.62,0.2,3.96,0.22l0.3-4.16h-95.04c-144.47,0-268.35,108.81-294.53,258.72
				c-5.14,29.39-24.01,53.2-49.24,62.13c-73.19,25.87-115.47,103.33-100.55,184.18c13.7,74.17,78.79,128.02,154.79,128.02h336.53
				l0.3-3.94H606.36z"/>
			<path class="st3" d="M1264.25,1937.28H606.36c-76,0-141.09-53.84-154.79-128.02c-14.92-80.85,27.36-158.31,100.55-184.18
				l1.31,3.71l-1.31-3.71c25.25-8.94,44.12-32.74,49.26-62.13c26.16-149.92,150.04-258.72,294.54-258.72
				c83.82,0,161.45,35.89,218.66,101.06c34.88,39.76,84.31,60.13,134.32,55.92c24.73-2.03,49.64,0.54,74.34,7.69
				c89.81,25.98,154.99,104.47,166,199.98c8.21,70.79-13.53,141.07-59.64,192.81C1386.82,1909.72,1326.54,1937.28,1264.25,1937.28z
				 M895.92,1312.1c-140.66,0-261.29,106.07-286.79,252.2c-5.61,32.19-26.45,58.32-54.4,68.19l0,0
				c-69.5,24.58-109.64,98.32-95.41,175.35c13,70.44,74.84,121.56,147.04,121.56h657.89c60.04,0,118.17-26.59,159.48-72.96
				c44.6-50.06,65.64-118.11,57.7-186.69c-10.67-92.34-73.6-168.22-160.4-193.3c-23.68-6.87-47.74-9.37-71.45-7.41
				c-53.33,4.4-104.39-16.95-140.9-58.56C1052.97,1347.04,977.43,1312.1,895.92,1312.1z"/>
		</g>
	</g>
	<g>
		<path class="st3" d="M2490.77,1864.79c-5.29,0-25.62,0-30.91,0c-43.86,0-79.54,44.35-79.54,98.86c0,54.53,35.68,98.89,79.54,98.89
			c5.29,0,25.62,0,30.91,0c43.86,0,79.54-44.35,79.54-98.89C2570.31,1909.14,2534.63,1864.79,2490.77,1864.79z"/>
		<g>
			<circle class="st2" cx="2226.2" cy="1958.68" r="283.47"/>
			<path class="st3" d="M2226.19,2246.1c-158.47,0-287.39-128.94-287.39-287.41c0-158.48,128.92-287.41,287.39-287.41
				s287.41,128.92,287.41,287.41C2513.59,2117.16,2384.66,2246.1,2226.19,2246.1z M2226.19,1679.16
				c-154.13,0-279.52,125.4-279.52,279.53s125.39,279.53,279.52,279.53s279.53-125.4,279.53-279.53S2380.32,1679.16,2226.19,1679.16
				z"/>
		</g>
		<g>
			<circle class="st3" cx="2235.65" cy="1935.59" r="23.62"/>
		</g>
		<g>
			<circle class="st3" cx="2406.88" cy="1935.59" r="23.62"/>
		</g>
		<g>
			<g>
				<path class="st3" d="M2263.03,2030.02c36.88,6.36,78.4,6.36,115.27,0c27.38-4.72,47.06,25.03,31.11,47.78
					c-19.59,27.94-52.03,46.21-88.75,46.21s-69.16-18.27-88.75-46.21C2215.97,2055.04,2235.65,2025.29,2263.03,2030.02z"/>
			</g>
			<path class="st4" d="M2293.47,2092.67h-42.95c19.04,17.33,43.92,27.41,70.15,27.41c1.05,0,2.03-0.34,3.08-0.37
				C2321.68,2104.54,2309.21,2092.67,2293.47,2092.67z"/>
			<g>
				<path class="st3" d="M2320.68,2127.95c-36.57,0-70.96-17.9-92-47.92c-8.18-11.66-8.55-26.27-1.02-38.14
					c7.75-12.24,21.5-18.21,36.05-15.75l0,0c36.17,6.21,77.76,6.21,113.93,0c14.52-2.49,28.3,3.51,36.05,15.75
					c7.54,11.87,7.14,26.51-1.05,38.17C2391.61,2110.05,2357.25,2127.95,2320.68,2127.95z M2257.32,2033.46
					c-9.38,0-17.9,4.58-23.01,12.64c-5.81,9.14-5.47,20.42,0.83,29.44c19.53,27.9,51.52,44.54,85.54,44.54
					c33.99,0,65.98-16.64,85.51-44.54c6.34-9.01,6.64-20.3,0.86-29.44c-6.03-9.5-16.82-14.06-28.05-12.21
					c-37.09,6.4-79.54,6.4-116.64,0l0,0C2260.67,2033.62,2258.98,2033.46,2257.32,2033.46z"/>
			</g>
			<path class="st2" d="M2387.75,2047.26v-13.44c-2.84-0.39-5.77-0.42-8.76,0.08c-37.09,6.4-79.54,6.4-116.64,0
				c-1.69-0.28-3.38-0.43-5.04-0.43c-9.38,0-17.9,4.58-23.01,12.64c-2.07,3.26-3.08,6.81-3.6,10.42h147.78
				C2383.6,2056.52,2387.75,2052.37,2387.75,2047.26z"/>
		</g>
		<g>
			<path class="st5" d="M2227.56,1745.91L2227.56,1745.91c-83.54,0-151.27,67.72-151.27,151.27v0c0,39.25-31.82,71.06-71.06,71.06
				h-37.17l17.42-196.71l72.78-107.38l144.31-47.02l45.1,58.62L2227.56,1745.91z"/>
		</g>
		<g>
			<path class="st1" d="M2476.55,1826.74c8.02,15.18,14.74,31.09,19.92,47.74h7.19c0-144.05-116.24-260.62-260.29-260.62
				c-9.71,0-19.43,0.67-28.81,1.68c-129.98,14.07-231.48,124.62-231.48,258.95h21.77c0-131.65,106.86-238.52,238.51-238.52
				c23.45,0,45.9,3.35,67.33,9.72C2394.54,1670.42,2458.82,1740.16,2476.55,1826.74z"/>
			<path class="st3" d="M2243.38,1609.94h-35.5c-3.2,0-6,0-8.74,0.32h-4.89c-140.53,7.21-250.62,123.28-250.62,264.23
				c0,2.17,1.77,3.94,3.94,3.94h35.53c2.18,0,3.94-1.77,3.94-3.94c0-131.32,98-240.98,227.95-255.03
				c10.33-1.11,19.62-1.65,28.39-1.65c2.18,0,3.94-1.77,3.94-3.94S2245.57,1609.94,2243.38,1609.94z"/>
			<path class="st3" d="M2482.9,1839.39c-13.71-92.05-80.04-170.62-171.09-197.48c-1.91-0.58-3.97,0.4-4.74,2.28
				c-0.77,1.86-0.03,4,1.75,4.97c38.42,21.05,69.7,51.3,92.53,86.85C2436.12,1763.38,2464.02,1798.84,2482.9,1839.39z"/>
			<path class="st3" d="M2468.69,1812.24c5.19,8.57,9.7,17.55,13.97,26.68c-13.89-91.83-79.96-170.21-170.85-197
				c-22.05-6.57-45.09-9.89-68.44-9.89c-132.35,0-240.28,106.64-242.41,238.52h-13.9c1.94-129.57,99.26-237.18,227.92-251.1
				c10.33-1.11,19.62-1.65,28.39-1.65c140.04,0,254.22,113.02,256.31,252.74h-4.58c0.87,2.65,1.95,5.19,2.74,7.87h9.75v-3.94
				c0-145.87-118.51-264.55-264.21-264.55c-9.04,0-18.61,0.55-29.25,1.68c-133.95,14.52-234.96,127.52-234.96,262.88v3.94h29.65
				v-3.94c0-129.35,105.22-234.58,234.56-234.58c22.58,0,44.85,3.21,66.22,9.57C2388.13,1672.63,2447.25,1735.75,2468.69,1812.24z"
				/>
		</g>
		<g>
			<path class="st3" d="M2502.8,2036.97l-7.57-2.15c6.95-24.58,10.49-50.2,10.49-76.13c0-98.93-53.09-191.46-138.6-241.47l4-6.8
				c87.88,51.43,142.47,146.55,142.47,248.27C2513.59,1985.36,2509.96,2011.69,2502.8,2036.97z"/>
		</g>
		<g>
			<circle class="st5" cx="2411.15" cy="1695.17" r="71.84"/>
			<path class="st3" d="M2411.14,1770.94c-41.77,0-75.76-33.99-75.76-75.77c0-41.79,33.99-75.77,75.76-75.77
				c41.8,0,75.79,33.99,75.79,75.77C2486.93,1736.95,2452.94,1770.94,2411.14,1770.94z M2411.14,1627.27
				c-37.43,0-67.88,30.47-67.88,67.9c0,37.43,30.45,67.9,67.88,67.9s67.91-30.47,67.91-67.9
				C2479.05,1657.74,2448.57,1627.27,2411.14,1627.27z"/>
		</g>
		<g>
			<path class="st5" d="M2227.56,1745.91c18.33,0,78.17,0,100.21,0c49.27,0,88.02-45.04,77.32-96.19
				c-6.4-30.62-31.64-55.05-62.42-60.67c-34.66-6.33-68.68,8.58-82.39,36.6c-8.75,17.88-39.87,12.45-50.99,12.75L2227.56,1745.91z"
				/>
			<path class="st3" d="M2408.92,1648.92c-6.71-32.2-33.07-57.83-65.55-63.75c-36.57-6.63-72.22,9.26-86.65,38.76
				c-6.03,12.4-27.19,11.38-39.71,10.75c-3.14-0.15-5.72-0.31-7.84-0.22l0.25,7.87c1.78-0.05,4.34,0.08,7.23,0.22
				c14.36,0.68,38.82,1.89,47.15-15.16c12.92-26.33,44.94-40.63,78.16-34.46c29.37,5.35,53.18,28.5,59.27,57.59
				c4.77,22.78-0.74,45.97-15.1,63.64c-14.33,17.67-35.62,27.81-58.38,27.81h-100.18c-85.57,0-155.21,69.62-155.21,155.21
				c0,4.8-0.55,9.47-1.51,13.98c1.78,3.51,3.38,7.18,4.8,10.97c2.79-7.84,4.59-16.16,4.59-24.95c0-81.23,66.1-147.33,147.33-147.33
				h100.18c25.13,0,48.63-11.2,64.5-30.71C2408.09,1699.61,2414.18,1674.02,2408.92,1648.92z"/>
		</g>
		<g>
			<g>
				<g>
					<circle class="st1" cx="2337.55" cy="2227.12" r="42.61"/>
					<path class="st3" d="M2337.53,2273.66c-25.65,0-46.54-20.89-46.54-46.54c0-25.65,20.88-46.54,46.54-46.54
						c25.68,0,46.57,20.88,46.57,46.54C2384.1,2252.77,2363.22,2273.66,2337.53,2273.66z M2337.53,2188.46
						c-21.32,0-38.66,17.35-38.66,38.66c0,21.32,17.35,38.66,38.66,38.66c21.35,0,38.69-17.35,38.69-38.66
						C2376.23,2205.8,2358.88,2188.46,2337.53,2188.46z"/>
				</g>
				<path class="st3" d="M2337.53,2265.78c-5.35,0-13.1-15.07-13.1-38.66c0-23.59,7.75-38.66,13.1-38.66c2.18,0,3.94-1.75,3.94-3.94
					c0-2.18-1.75-3.94-3.94-3.94c-25.65,0-46.54,20.89-46.54,46.54c0,25.65,20.89,46.54,46.54,46.54c2.18,0,3.94-1.75,3.94-3.94
					S2339.72,2265.78,2337.53,2265.78z"/>
			</g>
			<g>
				<path class="st3" d="M2303.51,2236.96c-0.31,0-0.62-0.03-0.92-0.06l-57.46-6.83c-102.67-12.15-192.64-74.1-240.65-165.7
					c-2-3.84-0.52-8.61,3.32-10.64c3.84-2.03,8.61-0.52,10.64,3.32c45.58,87.02,131.03,145.86,228.53,157.39l57.46,6.83
					c4.34,0.49,7.41,4.43,6.89,8.74C2310.87,2234.01,2307.45,2236.96,2303.51,2236.96z"/>
			</g>
			<path class="st2" d="M2003.73,1868.73h-40.37v189.85h40.37c41.75,0,75.59-42.5,75.59-94.93
				C2079.32,1911.23,2045.48,1868.73,2003.73,1868.73z"/>
			<path class="st3" d="M2003.74,1864.79h-40.39c-2.17,0-3.94,1.77-3.94,3.94v189.87c0,2.18,1.77,3.94,3.94,3.94h40.39
				c43.83,0,79.51-44.35,79.51-98.89C2083.25,1909.14,2047.57,1864.79,2003.74,1864.79z M2003.74,2054.66h-36.45v-182h36.45
				c39.49,0,71.64,40.82,71.64,90.98C2075.38,2013.84,2043.24,2054.66,2003.74,2054.66z"/>
		</g>
		<g>
			<ellipse class="st1" cx="1963.36" cy="1963.65" rx="75.59" ry="94.93"/>
			<path class="st3" d="M1963.36,2062.53c-43.85,0-79.53-44.35-79.53-98.89c0-54.5,35.68-98.86,79.53-98.86
				c43.86,0,79.54,44.35,79.54,98.86C2042.9,2018.18,2007.22,2062.53,1963.36,2062.53z M1963.36,1872.66
				c-39.51,0-71.65,40.82-71.65,90.98c0,50.2,32.14,91.01,71.65,91.01c39.52,0,71.67-40.82,71.67-91.01
				C2035.02,1913.48,2002.88,1872.66,1963.36,1872.66z"/>
		</g>
		<path class="st3" d="M1936.63,1898.37c-29.11,0-52.8,29.28-52.8,65.27c0,36.02,23.68,65.3,52.8,65.3
			c29.1,0,52.78-29.28,52.78-65.3C1989.41,1927.66,1965.73,1898.37,1936.63,1898.37z"/>
	</g>
	<g>
		<path class="st2" d="M2586.6,2414.13c-94.97,87.26-221.26,140.98-360.4,140.98s-265.43-53.72-360.4-140.98
			c103.22-68.76,227.08-108.99,360.4-108.99C2359.53,2305.15,2483.38,2345.38,2586.6,2414.13z"/>
		<path class="st3" d="M2226.19,2559.03c-134.44,0-263.38-50.44-363.06-142.01l-3.69-3.38l4.17-2.8
			c107.72-71.7,233.09-109.62,362.58-109.62c129.52,0,254.89,37.93,362.61,109.62l4.18,2.8l-3.69,3.38
			C2489.6,2508.59,2360.66,2559.03,2226.19,2559.03z M1872.19,2414.62c97.69,88.09,223.21,136.54,354,136.54
			c130.82,0,256.34-48.44,354.03-136.54c-105.44-69.05-227.77-105.53-354.03-105.53S1977.63,2345.57,1872.19,2414.62z"/>
	</g>
	<g>
		<path class="st1" d="M1084.87,2545.41c-88.85,0-161.13-72.28-161.13-161.14v-37.22c0-84.49-68.76-153.24-153.27-153.24H382.64
			c-113.71,0-206.23-92.52-206.23-206.23c0-113.71,92.52-206.23,206.23-206.23h3.86v7.87h-3.86
			c-109.38,0-198.36,88.98-198.36,198.36c0,109.38,88.98,198.36,198.36,198.36h387.83c88.86,0,161.14,72.28,161.14,161.11v37.22
			c0,84.52,68.74,153.27,153.25,153.27s153.25-68.75,153.25-153.27c0-195.47,159.05-354.52,354.54-354.52h68.61v7.87h-68.61
			c-191.15,0-346.66,155.51-346.66,346.65C1246,2473.12,1173.71,2545.41,1084.87,2545.41z"/>
	</g>
	<g>
		<g>
			<circle class="st2" cx="2759.63" cy="2005.93" r="30.96"/>
			<path class="st3" d="M2759.63,2040.82c-19.25,0-34.91-15.66-34.91-34.88c0-19.25,15.66-34.91,34.91-34.91
				c19.25,0,34.91,15.66,34.91,34.91C2794.54,2025.16,2778.88,2040.82,2759.63,2040.82z M2759.63,1978.9
				c-14.92,0-27.04,12.12-27.04,27.04c0,14.89,12.12,27.01,27.04,27.01c14.92,0,27.04-12.12,27.04-27.01
				C2786.67,1991.02,2774.55,1978.9,2759.63,1978.9z"/>
		</g>
		<g>
			<g>
				<path class="st1" d="M2759.63,2036.89c-6.85,0-12.4-13.86-12.4-30.96s5.55-30.96,12.4-30.96c-17.1,0-30.96,13.86-30.96,30.96
					S2742.53,2036.89,2759.63,2036.89z"/>
				<path class="st3" d="M2759.63,2040.82c-19.25,0-34.91-15.66-34.91-34.88c0-19.25,15.66-34.91,34.91-34.91v7.87
					c-2.98,0-8.46,10.27-8.46,27.04s5.48,27.01,8.46,27.01V2040.82z M2747.54,1981.76c-8.86,4.46-14.95,13.63-14.95,24.18
					c0,10.55,6.09,19.72,14.95,24.15c-2.8-6.58-4.24-15.38-4.24-24.15S2744.74,1988.34,2747.54,1981.76z"/>
			</g>
		</g>
	</g>
	<g>
		<g>
			<circle class="st2" cx="1691.08" cy="2035.43" r="30.96"/>
			<path class="st3" d="M1691.08,2070.34c-19.25,0-34.91-15.66-34.91-34.91c0-19.25,15.66-34.91,34.91-34.91
				c19.24,0,34.9,15.66,34.9,34.91C1725.98,2054.69,1710.32,2070.34,1691.08,2070.34z M1691.08,2008.4
				c-14.9,0-27.04,12.12-27.04,27.04c0,14.92,12.13,27.04,27.04,27.04c14.9,0,27.02-12.12,27.02-27.04
				C1718.11,2020.52,1705.99,2008.4,1691.08,2008.4z"/>
		</g>
		<g>
			<g>
				<path class="st1" d="M1691.08,2066.39c-6.85,0-12.4-13.86-12.4-30.96c0-17.1,5.55-30.96,12.4-30.96
					c-17.1,0-30.96,13.86-30.96,30.96C1660.12,2052.53,1673.98,2066.39,1691.08,2066.39z"/>
				<path class="st3" d="M1691.08,2070.34c-19.25,0-34.91-15.66-34.91-34.91c0-19.25,15.66-34.91,34.91-34.91v7.87
					c-2.98,0-8.47,10.27-8.47,27.04c0,16.76,5.49,27.04,8.47,27.04V2070.34z M1678.98,2011.26c-8.86,4.46-14.93,13.63-14.93,24.18
					c0,10.55,6.07,19.72,14.93,24.18c-2.81-6.58-4.24-15.41-4.24-24.18S1676.17,2017.84,1678.98,2011.26z"/>
			</g>
		</g>
	</g>
	<g>
		<path class="st1" d="M2165.04,3180.78c-138.66,0-251.46-112.82-251.46-251.48c0-140.47,34.7-280.36,100.35-404.56l6.95,3.69
			c-65.04,123.03-99.43,261.66-99.43,400.87c0,134.32,109.27,243.61,243.59,243.61s243.61-109.28,243.61-243.61
			c0-77.42,62.96-140.38,140.38-140.38h61.98v7.87h-61.98c-73.05,0-132.51,59.46-132.51,132.51
			C2416.52,3067.96,2303.7,3180.78,2165.04,3180.78z"/>
	</g>
	<g>
		<path class="st0" d="M2962.37,2502.54c-17.4,0-31.5,14.1-31.5,31.5v181.13v63.12l55.35-47.8c11.44-9.88,26.06-15.32,41.17-15.32
			h198.29c17.4,0,31.5-14.1,31.5-31.5v-149.63c0-17.4-14.1-31.5-31.5-31.5H2962.37z"/>
	</g>
	<g>
		<path class="st0" d="M977.3,2202.71c-50.4-9.2-96.19,14.48-119.79,53.21c-8.69,14.26-23.92,23.47-40.54,21.83
			c-10.38-1.03-21.44,0.16-32.98,4.35c-25.07,9.09-44.53,31.11-49.38,57.33c-9.03,48.79,28.18,91.33,75.32,91.33
			c26.66,0,113.65,0,145.69,0c71.63,0,127.97-65.48,112.42-139.86C1058.74,2246.4,1022.04,2210.88,977.3,2202.71z"/>
	</g>
	<g>
		<g>
			<path class="st5" d="M3034.6,2568.29c-17.4,0-31.5,14.1-31.5,31.5v181.13v63.12l55.35-47.8c11.44-9.88,26.06-15.32,41.17-15.32
				h198.29c17.4,0,31.5-14.1,31.5-31.5v-149.63c0-17.4-14.1-31.5-31.5-31.5H3034.6z"/>
		</g>
		<g>
			<circle class="st2" cx="3166.27" cy="2673.5" r="22.52"/>
		</g>
		<g>
			<circle class="st2" cx="3247.48" cy="2673.5" r="22.52"/>
		</g>
		<g>
			<circle class="st2" cx="3085.05" cy="2673.5" r="22.52"/>
		</g>
	</g>
	<g>
		<g>
			<polygon class="st3" points="2464.74,915.34 2294.93,1048.29 2125.12,915.34 			"/>
		</g>
		<g>
			<polygon class="st3" points="2464.74,915.34 2294.93,782.39 2125.12,915.34 			"/>
		</g>
		<g>
			<polygon class="st2" points="2294.93,1048.3 2161.85,944.1 2161.85,870.73 2229.36,816.62 2428.01,816.62 2428.01,944.1 			"/>
		</g>
		<g>
			<polygon class="st6" points="2229.36,870.73 2161.85,870.73 2229.36,816.62 			"/>
		</g>
		<g>
			
				<rect x="2213.48" y="907.94" transform="matrix(-1 -1.224647e-16 1.224647e-16 -1 4589.8638 1830.1926)" class="st0" width="162.9" height="14.32"/>
		</g>
		<g>
			
				<rect x="2213.48" y="939.92" transform="matrix(-1 -1.224647e-16 1.224647e-16 -1 4589.8638 1894.1454)" class="st0" width="162.9" height="14.32"/>
		</g>
		<g>
			
				<rect x="2213.48" y="971.89" transform="matrix(-1 -1.224647e-16 1.224647e-16 -1 4589.8638 1958.0981)" class="st0" width="162.9" height="14.32"/>
		</g>
		<g>
			
				<rect x="2213.48" y="1003.87" transform="matrix(-1 -1.224647e-16 1.224647e-16 -1 4589.8638 2022.0509)" class="st0" width="162.9" height="14.32"/>
		</g>
		<g>
			<polygon class="st6" points="2294.93,1048.29 2125.12,915.34 2125.12,1168.08 2377.86,1168.08 2464.74,1168.08 2464.74,915.34 
							"/>
		</g>
	</g>
	<g>
		<path class="st0" d="M3319.97,907.39c-50.4-9.2-96.19,14.48-119.79,53.21c-8.69,14.26-23.92,23.47-40.54,21.83
			c-10.38-1.03-21.44,0.16-32.98,4.35c-25.07,9.09-44.53,31.11-49.38,57.34c-9.03,48.79,28.18,91.33,75.32,91.33
			c26.66,0,113.65,0,145.69,0c71.63,0,127.97-65.48,112.42-139.86C3401.41,951.08,3364.71,915.56,3319.97,907.39z"/>
	</g>
	<g>
		<path class="st7" d="M1095.74,1736.4L1095.74,1736.4c-1.31,33.75-28.36,61.47-62.13,62.08c-3.07,0.06-6.15,0.05-9.25-0.03
			c-113.01-2.67-205.65-95.32-208.3-208.33c-0.07-3.09-0.08-6.17-0.02-9.23c0.62-33.77,28.33-60.82,62.08-62.13h0
			c6.53-0.25,12.27,4.27,13.57,10.67l14.8,73.22c1.18,5.85-1.67,11.77-6.99,14.49l-9.12,4.67c-5.99,3.07-8.79,10.15-6.48,16.47
			c15.66,42.76,49.57,76.67,92.28,92.33c6.32,2.32,13.39-0.47,16.47-6.45l4.72-9.17c2.73-5.3,8.64-8.14,14.48-6.96l73.23,14.8
			C1091.47,1724.13,1095.99,1729.88,1095.74,1736.4z"/>
	</g>
	<g>
		<g>
			<path class="st8" d="M1021.2,1667.52c-4.35,0-7.87-3.52-7.87-7.87c0-32.23-26.24-58.47-58.47-58.47c-4.35,0-7.87-3.52-7.87-7.87
				s3.52-7.87,7.87-7.87c40.92,0,74.22,33.3,74.22,74.22C1029.07,1664,1025.55,1667.52,1021.2,1667.52z"/>
		</g>
		<g>
			<path class="st9" d="M1065.41,1667.52c-4.35,0-7.87-3.52-7.87-7.87c0-56.63-46.06-102.69-102.69-102.69
				c-4.35,0-7.87-3.52-7.87-7.87s3.52-7.87,7.87-7.87c65.3,0,118.43,53.14,118.43,118.44
				C1073.29,1664,1069.77,1667.52,1065.41,1667.52z"/>
		</g>
		<g>
			<path class="st10" d="M1109.64,1667.52c-4.35,0-7.87-3.52-7.87-7.87c0-81.02-65.9-146.92-146.92-146.92
				c-4.35,0-7.87-3.52-7.87-7.87s3.52-7.87,7.87-7.87c89.69,0,162.67,72.97,162.67,162.67
				C1117.52,1664,1114,1667.52,1109.64,1667.52z"/>
		</g>
	</g>
	<g>
		<g>
			<circle class="st2" cx="2029.81" cy="2508.87" r="30.96"/>
			<path class="st3" d="M2029.83,2543.78c-19.25,0-34.91-15.66-34.91-34.91c0-19.25,15.66-34.91,34.91-34.91
				c19.22,0,34.88,15.66,34.88,34.91C2064.71,2528.12,2049.05,2543.78,2029.83,2543.78z M2029.83,2481.83
				c-14.92,0-27.04,12.12-27.04,27.04c0,14.92,12.12,27.04,27.04,27.04c14.89,0,27.01-12.12,27.01-27.04
				C2056.83,2493.95,2044.71,2481.83,2029.83,2481.83z"/>
		</g>
		<g>
			<g>
				<path class="st1" d="M2029.81,2539.83c-6.85,0-12.4-13.86-12.4-30.96s5.55-30.96,12.4-30.96c-17.1,0-30.96,13.86-30.96,30.96
					S2012.71,2539.83,2029.81,2539.83z"/>
				<path class="st3" d="M2029.83,2543.78c-19.25,0-34.91-15.66-34.91-34.91c0-19.25,15.66-34.91,34.91-34.91v7.87
					c-2.98,0-8.49,10.27-8.49,27.04c0,16.76,5.51,27.04,8.49,27.04V2543.78z M2017.71,2484.69c-8.83,4.46-14.92,13.63-14.92,24.18
					c0,10.55,6.09,19.72,14.92,24.18c-2.8-6.58-4.24-15.41-4.24-24.18C2013.46,2500.1,2014.91,2491.27,2017.71,2484.69z"/>
			</g>
		</g>
	</g>
</g>
</svg>
