<svg width="22" height="22" viewBox="0 0 22 22" fill="none" xmlns="http://www.w3.org/2000/svg">
<path d="M6.1875 4.125C6.1875 3.21332 6.54966 2.33898 7.19432 1.69432C7.83898 1.04966 8.71332 0.6875 9.625 0.6875C10.5367 0.6875 11.411 1.04966 12.0557 1.69432C12.7003 2.33898 13.0625 3.21332 13.0625 4.125V16.5C13.0625 17.047 12.8452 17.5716 12.4584 17.9584C12.0716 18.3452 11.547 18.5625 11 18.5625C10.453 18.5625 9.92839 18.3452 9.54159 17.9584C9.1548 17.5716 8.9375 17.047 8.9375 16.5V6.875C8.9375 6.69266 9.00993 6.5178 9.13886 6.38886C9.2678 6.25993 9.44266 6.1875 9.625 6.1875C9.80734 6.1875 9.9822 6.25993 10.1111 6.38886C10.2401 6.5178 10.3125 6.69266 10.3125 6.875V16.5C10.3125 16.6823 10.3849 16.8572 10.5139 16.9861C10.6428 17.1151 10.8177 17.1875 11 17.1875C11.1823 17.1875 11.3572 17.1151 11.4861 16.9861C11.6151 16.8572 11.6875 16.6823 11.6875 16.5V4.125C11.6875 3.85415 11.6342 3.58595 11.5305 3.33572C11.4269 3.08548 11.2749 2.85811 11.0834 2.66659C10.8919 2.47507 10.6645 2.32315 10.4143 2.2195C10.1641 2.11585 9.89585 2.0625 9.625 2.0625C9.35415 2.0625 9.08595 2.11585 8.83572 2.2195C8.58548 2.32315 8.35811 2.47507 8.16659 2.66659C7.97507 2.85811 7.82315 3.08548 7.7195 3.33572C7.61585 3.58595 7.5625 3.85415 7.5625 4.125V16.5C7.5625 17.4117 7.92466 18.286 8.56932 18.9307C9.21398 19.5753 10.0883 19.9375 11 19.9375C11.9117 19.9375 12.786 19.5753 13.4307 18.9307C14.0753 18.286 14.4375 17.4117 14.4375 16.5V6.875C14.4375 6.69266 14.5099 6.5178 14.6389 6.38886C14.7678 6.25993 14.9427 6.1875 15.125 6.1875C15.3073 6.1875 15.4822 6.25993 15.6111 6.38886C15.7401 6.5178 15.8125 6.69266 15.8125 6.875V16.5C15.8125 17.7764 15.3055 19.0004 14.403 19.903C13.5004 20.8055 12.2764 21.3125 11 21.3125C9.72365 21.3125 8.49957 20.8055 7.59705 19.903C6.69453 19.0004 6.1875 17.7764 6.1875 16.5V4.125Z" fill="black"/>
</svg>
