<svg width="47" height="47" viewBox="0 0 47 47" fill="none" xmlns="http://www.w3.org/2000/svg">
<rect width="47" height="47" rx="23.5" fill="#424141"/>
<path d="M15 19.5C15 18.9033 15.2371 18.331 15.659 17.909C16.081 17.4871 16.6533 17.25 17.25 17.25H30.75C31.3467 17.25 31.919 17.4871 32.341 17.909C32.7629 18.331 33 18.9033 33 19.5V28.5C33 29.0967 32.7629 29.669 32.341 30.091C31.919 30.5129 31.3467 30.75 30.75 30.75H17.25C16.6533 30.75 16.081 30.5129 15.659 30.091C15.2371 29.669 15 29.0967 15 28.5V19.5ZM17.25 18.375C16.9516 18.375 16.6655 18.4935 16.4545 18.7045C16.2435 18.9155 16.125 19.2016 16.125 19.5V19.7441L24 24.4691L31.875 19.7441V19.5C31.875 19.2016 31.7565 18.9155 31.5455 18.7045C31.3345 18.4935 31.0484 18.375 30.75 18.375H17.25ZM31.875 21.0559L26.5785 24.234L31.875 27.4931V21.0559ZM31.8367 28.7914L25.4918 24.8865L24 25.7809L22.5082 24.8865L16.1633 28.7903C16.2272 29.0296 16.3684 29.2412 16.5649 29.3922C16.7614 29.5431 17.0022 29.625 17.25 29.625H30.75C30.9976 29.625 31.2384 29.5434 31.4349 29.3926C31.6313 29.2419 31.7726 29.0306 31.8367 28.7914V28.7914ZM16.125 27.4931L21.4215 24.234L16.125 21.0559V27.4931Z" fill="white"/>
</svg>
