<svg width="22" height="22" viewBox="0 0 22 22" fill="none" xmlns="http://www.w3.org/2000/svg">
<path d="M14.7905 12.1C16.6456 10.9168 17.875 8.89514 17.875 6.6C17.875 2.96108 14.7905 0 11 0C7.20946 0 4.125 2.96108 4.125 6.6C4.125 8.89514 5.35135 10.9168 7.20946 12.1C3.01013 13.5865 0 17.4573 0 22H1.83333C1.83333 17.1481 5.94595 13.2 11 13.2C16.0541 13.2 20.1667 17.1481 20.1667 22H22C21.9969 17.4573 18.9899 13.5895 14.7905 12.1ZM10.9969 11.44C8.21594 11.44 5.95524 9.26973 5.95524 6.6C5.95524 3.93027 8.21594 1.76 10.9969 1.76C13.7779 1.76 16.0386 3.93027 16.0386 6.6C16.0386 9.26973 13.7779 11.44 10.9969 11.44Z" fill="black"/>
</svg>
