<svg width="47" height="47" viewBox="0 0 47 47" fill="none" xmlns="http://www.w3.org/2000/svg">
<rect width="47" height="47" rx="23.5" fill="#424141"/>
<g clip-path="url(#clip0_254_25)">
<path d="M28.6868 25.0575C28.0973 26.2522 27.2985 27.4425 26.4818 28.5113C25.707 29.5188 24.8785 30.484 24 31.4025C23.1215 30.484 22.293 29.5188 21.5183 28.5113C20.7015 27.4425 19.9028 26.2522 19.3133 25.0575C18.717 23.8504 18.375 22.7197 18.375 21.75C18.375 20.2582 18.9676 18.8274 20.0225 17.7725C21.0774 16.7176 22.5082 16.125 24 16.125C25.4918 16.125 26.9226 16.7176 27.9775 17.7725C29.0324 18.8274 29.625 20.2582 29.625 21.75C29.625 22.7197 29.2819 23.8504 28.6868 25.0575ZM24 33C24 33 30.75 26.6033 30.75 21.75C30.75 19.9598 30.0388 18.2429 28.773 16.977C27.5071 15.7112 25.7902 15 24 15C22.2098 15 20.4929 15.7112 19.227 16.977C17.9612 18.2429 17.25 19.9598 17.25 21.75C17.25 26.6033 24 33 24 33Z" fill="white"/>
<path d="M24 24C23.4033 24 22.831 23.7629 22.409 23.341C21.9871 22.919 21.75 22.3467 21.75 21.75C21.75 21.1533 21.9871 20.581 22.409 20.159C22.831 19.7371 23.4033 19.5 24 19.5C24.5967 19.5 25.169 19.7371 25.591 20.159C26.0129 20.581 26.25 21.1533 26.25 21.75C26.25 22.3467 26.0129 22.919 25.591 23.341C25.169 23.7629 24.5967 24 24 24ZM24 25.125C24.8951 25.125 25.7536 24.7694 26.3865 24.1365C27.0194 23.5036 27.375 22.6451 27.375 21.75C27.375 20.8549 27.0194 19.9964 26.3865 19.3635C25.7536 18.7306 24.8951 18.375 24 18.375C23.1049 18.375 22.2464 18.7306 21.6135 19.3635C20.9806 19.9964 20.625 20.8549 20.625 21.75C20.625 22.6451 20.9806 23.5036 21.6135 24.1365C22.2464 24.7694 23.1049 25.125 24 25.125V25.125Z" fill="white"/>
</g>
<defs>
<clipPath id="clip0_254_25">
<rect width="18" height="18" fill="white" transform="translate(15 15)"/>
</clipPath>
</defs>
</svg>
