<?xml version="1.0" encoding="utf-8"?>
<!-- Generator: Adobe Illustrator 25.0.0, SVG Export Plug-In . SVG Version: 6.00 Build 0)  -->
<svg version="1.1" id="OBJECTS" xmlns="http://www.w3.org/2000/svg" xmlns:xlink="http://www.w3.org/1999/xlink" x="0px" y="0px"
	 viewBox="0 0 700 500" style="enable-background:new 0 0 700 500;" xml:space="preserve">
<style type="text/css">
	.st0{fill:none;stroke:#9A8CF3;stroke-linecap:round;stroke-linejoin:round;stroke-miterlimit:10;}
	.st1{fill:none;stroke:#000000;stroke-linecap:round;stroke-linejoin:round;stroke-miterlimit:10;}
	.st2{fill:#9A8CF3;}
	.st3{fill:#FFFFFF;stroke:#000000;stroke-linecap:round;stroke-linejoin:round;stroke-miterlimit:10;}
	.st4{stroke:#000000;stroke-linecap:round;stroke-linejoin:round;stroke-miterlimit:10;}
	.st5{clip-path:url(#SVGID_2_);}
	.st6{fill:none;stroke:#FFFFFF;stroke-linecap:round;stroke-linejoin:round;stroke-miterlimit:10;}
	.st7{clip-path:url(#SVGID_4_);}
</style>
<g>
	<g>
		<polygon class="st0" points="253.56,141.68 237.79,122.91 253.56,122.91 		"/>
		<polygon class="st1" points="183.26,122.9 183.26,73.6 253.56,73.6 253.56,111.66 253.56,122.9 253.56,122.91 237.79,122.91 
			237.78,122.9 		"/>
	</g>
	<g>
		<line class="st1" x1="236.49" y1="91.04" x2="196.17" y2="91.04"/>
		<line class="st1" x1="236.49" y1="105.82" x2="206.12" y2="105.82"/>
	</g>
</g>
<g>
	<g>
		<path class="st2" d="M298.33,212.79l-66.66,14.51c-1.49,0.32-3.01-0.39-3.73-1.74l-30.37-67.66c-1.67-3.14-5.57-4.33-8.71-2.67
			l-2,1.06l31.53,79.36l0.05,0.09c0.92,1.73,2.91,2.6,4.8,2.1l0,0l81.21-21.17C303.81,213.93,301.09,212.21,298.33,212.79z"/>
	</g>
	<g>
		<g>
			<g>
				<g>
					<g>
						<g>
							<g>
								<path d="M189.76,330.4c0,0-5.44,11.25-9.48,13.81l-11.09,2.63c-5.21,0.62-6.95,4.38-6.95,4.38l29.31,13.56l14.1-27.52
									L189.76,330.4z"/>
							</g>
						</g>
					</g>
				</g>
			</g>
			<path class="st3" d="M341.64,232.66c0,0-69.79,2.62-102.53,7.59c-9.47,1.44-17.66,7.38-22.07,15.89l-38.51,74.41l34.11,17.94
				l39.5-71.5l71.82-2.14L341.64,232.66z"/>
		</g>
		<g>
			<g>
				<g>
					<path class="st3" d="M344.39,215.75c-0.91,3.03-2.29,5.92-4.25,8.41c-16.34,20.75-50.22-4.61-77.91-4.4
						c-3.82,0.03-7.21,0.1-8.03,1.33c-1.38,2.06-3.01,5.03-4.01,4.95c-1.15-0.1,0.65-4.14,1.67-7.18c0,0-3.41,8.41-4.66,7.95
						c-1.51-0.56,2.34-10.14,2.34-10.14s-4.9,9.81-6.16,8.29c-1.26-1.52,4.07-10.25,4.07-10.25s-5.04,7.78-6.66,7
						c-1.31-0.64,2.96-6.56,7.35-11.25c2.6-2.77,5.98-4.68,9.72-5.39c3.57-0.68,8.82-1.1,16.32-0.55c0,0,27.98,3.12,51.28,6.91
						l9.03-41.78c1.11-5.14,5-9.35,10.13-10.53c4.01-0.92,8.52-0.51,11.48,4.16c2.1,3.32,2.45,7.45,1.27,11.2L344.39,215.75z"/>
				</g>
			</g>
			<g>
				<g>
					<g>
						<g>
							<g>
								<g>
									<path d="M256.31,347.01c0,0,7.67,14.09,7.28,18.86l-4.57,10.45c-2.64,4.54-0.68,8.18-0.68,8.18l28.46-15.26l-13.55-27.91
										L256.31,347.01z"/>
								</g>
							</g>
						</g>
					</g>
				</g>
				<path class="st3" d="M348.66,223.81c0,0-97.5-5.77-125.59,20.68c-22.64,21.32,27.29,112.93,27.29,112.93l35.53-14.96
					l-28.88-64.57l76.66-1c5.88-0.08,11.63-1.88,16.4-5.33c9.14-6.6,20.41-20.53,14.97-47.76H348.66z"/>
			</g>
			<g>
				<path class="st4" d="M397.73,156.6c0,0,2.08-10.67-9.95-15.04c-10.77-3.91-11.77-14.99-11.77-14.99s-3.44-8.67-13.15-8.12
					c-9.71,0.54-4.83-15.91-21.37-19.18c-2.48-0.49-4.77,0.5-6.77,2.17c-6.14,5.12-7.14,14.19-2.76,20.87l22.51,34.28H397.73z"/>
				<g>
					<g>
						<polygon class="st3" points="335.26,165.81 324.65,139.36 333.89,126.26 356.67,159.84 						"/>
						<polygon class="st4" points="328.76,147.85 333.38,140.42 326.5,142.36 						"/>
						<path class="st3" d="M351.85,107.98c5.69,11.04-4.17,27.45-15.9,33.5c-11.73,6.05-21.06,2.11-25.49-9.49
							c-4.13-10.83-1.88-26.99,9.84-33.04C332.03,92.9,346.15,96.94,351.85,107.98z"/>
						<path class="st4" d="M353.01,111.08C349.3,99.4,337.5,93.7,324.78,97.21c-10.01,2.77-16.46,12.55-17.14,22.42
							c0.14,0.04,8.08-0.21,11.47-9.01c0,0,0.94,14.16,15.88,11.41l6.64,15.61C350.47,133.55,357.13,124.01,353.01,111.08z"/>
						<g>
							<path class="st3" d="M322.04,135.9c0,0,3.21-0.24,3.72-3.85"/>
						</g>
					</g>
					<g>
						<path class="st3" d="M336.62,132.69c1.42-0.41,2.76-1.38,3.68-2.81c1.85-2.86,1.33-6.47-1.15-8.08
							c-1.69-1.09-3.45-0.7-4.98,0.56"/>
						<path class="st3" d="M334.72,128.98c0,0,0.69-2.77,3.13-2.25"/>
					</g>
				</g>
				<path class="st4" d="M343.22,96.61c0.24,4.23,3.86,7.46,8.08,7.22c4.23-0.24,7.46-3.86,7.22-8.08
					c-0.24-4.23-3.86-7.46-8.08-7.22C346.22,88.77,342.99,92.39,343.22,96.61z"/>
			</g>
			<g>
				<path d="M329.94,157.67l22.57-8.06c0,0,27.06,44.92,28.03,74.79c0,0-31.88-0.59-59.33-0.9L329.94,157.67z"/>
				<g>
					<defs>
						<path id="SVGID_1_" d="M329.94,157.67l22.57-8.06c0,0,27.06,44.92,28.03,74.79c0,0-31.88-0.59-59.33-0.9L329.94,157.67z"/>
					</defs>
					<clipPath id="SVGID_2_">
						<use xlink:href="#SVGID_1_"  style="overflow:visible;"/>
					</clipPath>
					<g class="st5">
						<g>
							<line class="st6" x1="335.46" y1="170.84" x2="344.55" y2="170.84"/>
							<line class="st6" x1="340.01" y1="161.75" x2="348.48" y2="158.23"/>
							<line class="st6" x1="354.27" y1="160.92" x2="354.27" y2="170.84"/>
							<line class="st6" x1="349.93" y1="182.82" x2="355.92" y2="176.62"/>
							<line class="st6" x1="337.94" y1="181.58" x2="336.91" y2="189.02"/>
							<line class="st6" x1="345.59" y1="191.92" x2="354.27" y2="193.57"/>
							<line class="st6" x1="361.5" y1="192.74" x2="367.29" y2="186.96"/>
							<line class="st6" x1="349.93" y1="200.39" x2="355.92" y2="205.14"/>
						</g>
						<g>
							<line class="st6" x1="355.92" y1="215.2" x2="365.01" y2="215.2"/>
							<line class="st6" x1="360.47" y1="206.1" x2="368.94" y2="202.59"/>
							<line class="st6" x1="374.72" y1="205.28" x2="374.72" y2="215.2"/>
							<line class="st6" x1="370.39" y1="227.18" x2="376.38" y2="220.98"/>
							<line class="st6" x1="358.4" y1="225.94" x2="357.37" y2="233.38"/>
							<line class="st6" x1="366.05" y1="236.28" x2="374.72" y2="237.93"/>
							<line class="st6" x1="381.96" y1="237.1" x2="387.74" y2="231.32"/>
							<line class="st6" x1="370.39" y1="244.75" x2="376.38" y2="249.5"/>
						</g>
						<g>
							<line class="st6" x1="315.04" y1="196.36" x2="324.13" y2="196.36"/>
							<line class="st6" x1="319.58" y1="187.27" x2="328.05" y2="183.75"/>
							<line class="st6" x1="329.5" y1="208.35" x2="335.49" y2="202.15"/>
							<line class="st6" x1="317.52" y1="207.11" x2="316.48" y2="214.55"/>
							<line class="st6" x1="325.16" y1="217.44" x2="333.84" y2="219.09"/>
							<line class="st6" x1="341.07" y1="218.27" x2="346.86" y2="212.48"/>
							<line class="st6" x1="329.5" y1="225.91" x2="335.49" y2="230.66"/>
						</g>
					</g>
				</g>
			</g>
			<g>
				<g>
					<path class="st3" d="M318.77,228.31c-1.82,2.59-4.03,4.91-6.67,6.65c-22.03,14.56-46.24-20.14-72.59-28.64
						c-3.64-1.17-6.88-2.17-8.04-1.26c-1.96,1.53-4.44,3.84-5.36,3.44c-1.06-0.45,1.92-3.73,3.84-6.29c0,0-5.88,6.91-6.92,6.09
						c-1.26-1.01,5.4-8.89,5.4-8.89s-7.73,7.77-8.45,5.93c-0.72-1.84,7.08-8.46,7.08-8.46s-7.23,5.8-8.52,4.55
						c-1.05-1.02,4.87-5.3,10.51-8.37c3.34-1.82,7.15-2.57,10.92-2.07c3.6,0.48,8.72,1.72,15.67,4.6c0,0,25.59,11.75,46.51,22.66
						l21.7-36.83c2.67-4.54,7.69-7.3,12.93-6.81c4.1,0.38,8.25,2.19,9.6,7.56c0.95,3.81-0.02,7.84-2.31,11.03L318.77,228.31z"/>
				</g>
				<g>
					<path class="st4" d="M303.02,208.33l25.06,17.71c0,0,39.99-50.36,21.52-62.52C332.17,152.05,303.02,208.33,303.02,208.33z"/>
					<g>
						<defs>
							<path id="SVGID_3_" d="M303.02,208.33l25.06,17.71c0,0,39.99-50.36,21.52-62.52C332.17,152.05,303.02,208.33,303.02,208.33z"
								/>
						</defs>
						<clipPath id="SVGID_4_">
							<use xlink:href="#SVGID_3_"  style="overflow:visible;"/>
						</clipPath>
						<g class="st7">
							<g>
								<line class="st6" x1="335.46" y1="170.84" x2="344.55" y2="170.84"/>
								<line class="st6" x1="340.01" y1="161.75" x2="348.48" y2="158.23"/>
								<line class="st6" x1="354.27" y1="160.92" x2="354.27" y2="170.84"/>
								<line class="st6" x1="349.93" y1="182.82" x2="355.92" y2="176.62"/>
								<line class="st6" x1="337.94" y1="181.58" x2="336.91" y2="189.02"/>
								<line class="st6" x1="345.59" y1="191.92" x2="354.27" y2="193.57"/>
								<line class="st6" x1="361.5" y1="192.74" x2="367.29" y2="186.96"/>
								<line class="st6" x1="349.93" y1="200.39" x2="355.92" y2="205.14"/>
							</g>
							<g>
								<line class="st6" x1="355.92" y1="215.2" x2="365.01" y2="215.2"/>
								<line class="st6" x1="360.47" y1="206.1" x2="368.94" y2="202.59"/>
								<line class="st6" x1="374.72" y1="205.28" x2="374.72" y2="215.2"/>
								<line class="st6" x1="370.39" y1="227.18" x2="376.38" y2="220.98"/>
								<line class="st6" x1="358.4" y1="225.94" x2="357.37" y2="233.38"/>
								<line class="st6" x1="366.05" y1="236.28" x2="374.72" y2="237.93"/>
								<line class="st6" x1="381.96" y1="237.1" x2="387.74" y2="231.32"/>
								<line class="st6" x1="370.39" y1="244.75" x2="376.38" y2="249.5"/>
							</g>
							<g>
								<line class="st6" x1="315.04" y1="196.36" x2="324.13" y2="196.36"/>
								<line class="st6" x1="319.58" y1="187.27" x2="328.05" y2="183.75"/>
								<line class="st6" x1="329.5" y1="208.35" x2="335.49" y2="202.15"/>
								<line class="st6" x1="317.52" y1="207.11" x2="316.48" y2="214.55"/>
								<line class="st6" x1="325.16" y1="217.44" x2="333.84" y2="219.09"/>
								<line class="st6" x1="341.07" y1="218.27" x2="346.86" y2="212.48"/>
								<line class="st6" x1="329.5" y1="225.91" x2="335.49" y2="230.66"/>
							</g>
						</g>
					</g>
				</g>
			</g>
		</g>
	</g>
</g>
</svg>
