<svg width="22" height="17" viewBox="0 0 22 17" fill="none" xmlns="http://www.w3.org/2000/svg">
<path d="M0 2.75C0 2.02065 0.289731 1.32118 0.805456 0.805456C1.32118 0.289731 2.02065 0 2.75 0H19.25C19.9793 0 20.6788 0.289731 21.1945 0.805456C21.7103 1.32118 22 2.02065 22 2.75V13.75C22 14.4793 21.7103 15.1788 21.1945 15.6945C20.6788 16.2103 19.9793 16.5 19.25 16.5H2.75C2.02065 16.5 1.32118 16.2103 0.805456 15.6945C0.289731 15.1788 0 14.4793 0 13.75V2.75ZM2.75 1.375C2.38533 1.375 2.03559 1.51987 1.77773 1.77773C1.51987 2.03559 1.375 2.38533 1.375 2.75V3.04838L11 8.82337L20.625 3.04838V2.75C20.625 2.38533 20.4801 2.03559 20.2223 1.77773C19.9644 1.51987 19.6147 1.375 19.25 1.375H2.75ZM20.625 4.65162L14.1515 8.536L20.625 12.5194V4.65162ZM20.5782 14.1061L12.8232 9.3335L11 10.4266L9.17675 9.3335L1.42175 14.1048C1.49989 14.3973 1.67244 14.656 1.91261 14.8404C2.15279 15.0249 2.44715 15.125 2.75 15.125H19.25C19.5527 15.125 19.8469 15.0252 20.087 14.841C20.3272 14.6568 20.4999 14.3985 20.5782 14.1061ZM1.375 12.5194L7.8485 8.536L1.375 4.65162V12.5194Z" fill="black"/>
</svg>
