<svg width="345" height="455" viewBox="0 0 345 455" fill="none" xmlns="http://www.w3.org/2000/svg">
<path d="M133.321 100.393L110.298 72.9897H133.321V100.393Z" stroke="#1B4BE2" stroke-miterlimit="10" stroke-linecap="round" stroke-linejoin="round"/>
<path d="M30.6878 72.9747V1H133.321V56.565V72.9747V72.9893H110.298L110.283 72.9747H30.6878Z" stroke="black" stroke-miterlimit="10" stroke-linecap="round" stroke-linejoin="round"/>
<path d="M108.4 26.4614H49.5356" stroke="black" stroke-miterlimit="10" stroke-linecap="round" stroke-linejoin="round"/>
<path d="M108.4 48.0391H64.0618" stroke="black" stroke-miterlimit="10" stroke-linecap="round" stroke-linejoin="round"/>
<path d="M198.682 204.208L101.363 225.392C99.1878 225.859 96.9687 224.822 95.9175 222.851L51.5794 124.072C49.1413 119.488 43.4475 117.751 38.8633 120.174L35.9435 121.722L81.9752 237.582L82.0481 237.713C83.3913 240.239 86.2966 241.509 89.0558 240.779L207.617 209.872C206.683 205.872 202.712 203.361 198.682 204.208Z" fill="#1B4BE2"/>
<path d="M40.1773 375.912C40.1773 375.912 32.2353 392.336 26.3372 396.073L10.1465 399.913C2.54028 400.818 0 406.307 0 406.307L42.7906 426.104L63.3757 385.927L40.1773 375.912Z" fill="black"/>
<path d="M261.912 233.216C261.912 233.216 160.023 237.041 112.225 244.297C98.3996 246.399 86.4427 255.072 80.0044 267.496L23.7824 376.129L73.5807 402.32L131.248 297.935L236.1 294.811L261.912 233.216Z" fill="white" stroke="black" stroke-miterlimit="10" stroke-linecap="round" stroke-linejoin="round"/>
<path d="M265.927 208.531C264.598 212.954 262.583 217.173 259.722 220.809C235.867 251.102 186.404 214.078 145.979 214.385C140.402 214.429 135.453 214.531 134.255 216.327C132.241 219.334 129.861 223.67 128.401 223.553C126.722 223.407 129.35 217.509 130.839 213.071C130.839 213.071 125.861 225.349 124.036 224.677C121.831 223.86 127.452 209.874 127.452 209.874C127.452 209.874 120.298 224.196 118.459 221.977C116.619 219.757 124.401 207.012 124.401 207.012C124.401 207.012 117.043 218.37 114.678 217.232C112.765 216.297 118.999 207.655 125.408 200.807C129.204 196.763 134.139 193.975 139.599 192.938C144.811 191.946 152.475 191.333 163.425 192.135C163.425 192.135 204.274 196.69 238.29 202.224L251.473 141.228C253.094 133.724 258.773 127.577 266.262 125.855C272.117 124.511 278.701 125.11 283.023 131.928C286.088 136.775 286.599 142.804 284.877 148.279L265.927 208.531Z" fill="white" stroke="black" stroke-miterlimit="10" stroke-linecap="round" stroke-linejoin="round"/>
<path d="M137.336 400.16C137.336 400.16 148.534 420.731 147.964 427.694L141.292 442.951C137.438 449.579 140.3 454.893 140.3 454.893L181.849 432.614L162.067 391.868L137.336 400.16Z" fill="black"/>
<path d="M272.161 220.297C272.161 220.297 129.817 211.874 88.8078 250.489C55.7549 281.614 128.649 415.359 128.649 415.359L180.521 393.518L138.358 299.25L250.276 297.791C258.861 297.674 267.255 295.046 274.219 290.009C287.563 280.374 304.016 260.037 296.074 220.283H272.161V220.297Z" fill="white" stroke="black" stroke-miterlimit="10" stroke-linecap="round" stroke-linejoin="round"/>
<path d="M343.799 122.174C343.799 122.174 346.836 106.597 329.273 100.217C313.55 94.5085 312.09 78.3324 312.09 78.3324C312.09 78.3324 307.068 65.6748 292.892 66.4778C278.716 67.2662 285.84 43.2503 261.693 38.4763C258.072 37.7609 254.729 39.2063 251.809 41.6444C242.845 49.1192 241.385 62.3608 247.78 72.1131L280.643 122.16H343.799V122.174Z" fill="black" stroke="black" stroke-miterlimit="10" stroke-linecap="round" stroke-linejoin="round"/>
<path d="M252.598 135.62L237.108 97.0045L250.597 77.8794L283.855 126.904L252.598 135.62Z" fill="white" stroke="black" stroke-miterlimit="10" stroke-linecap="round" stroke-linejoin="round"/>
<path d="M243.108 109.401L249.853 98.5532L239.808 101.385L243.108 109.401Z" fill="black" stroke="black" stroke-miterlimit="10" stroke-linecap="round" stroke-linejoin="round"/>
<path d="M276.818 51.1923C285.125 67.3099 270.73 91.2674 253.605 100.1C236.48 108.933 222.859 103.18 216.391 86.2453C210.362 70.4342 213.647 46.8417 230.757 38.0091C247.882 29.1765 268.496 35.0746 276.818 51.1923Z" fill="white" stroke="black" stroke-miterlimit="10" stroke-linecap="round" stroke-linejoin="round"/>
<path d="M278.511 55.7176C273.095 38.6656 255.868 30.344 237.297 35.4683C222.683 39.5123 213.267 53.7905 212.274 68.2C212.479 68.2584 224.07 67.8934 229.02 55.046C229.02 55.046 230.392 75.7187 252.203 71.7038L261.897 94.4934C274.803 88.5223 284.526 74.5945 278.511 55.7176Z" fill="black" stroke="black" stroke-miterlimit="10" stroke-linecap="round" stroke-linejoin="round"/>
<path d="M233.297 91.9532C233.297 91.9532 237.984 91.6029 238.728 86.3325L233.297 91.9532Z" fill="white"/>
<path d="M233.297 91.9532C233.297 91.9532 237.984 91.6029 238.728 86.3325" stroke="black" stroke-miterlimit="10" stroke-linecap="round" stroke-linejoin="round"/>
<path d="M254.583 87.2671C256.656 86.6685 258.612 85.2524 259.955 83.1647C262.656 78.9893 261.897 73.7189 258.277 71.3684C255.809 69.7771 253.24 70.3465 251.006 72.186" fill="white"/>
<path d="M254.583 87.2671C256.656 86.6685 258.612 85.2524 259.955 83.1647C262.656 78.9893 261.897 73.7189 258.277 71.3684C255.809 69.7771 253.24 70.3465 251.006 72.186" stroke="black" stroke-miterlimit="10" stroke-linecap="round" stroke-linejoin="round"/>
<path d="M251.809 81.8505C251.809 81.8505 252.816 77.8065 256.379 78.5656L251.809 81.8505Z" fill="white"/>
<path d="M251.809 81.8505C251.809 81.8505 252.816 77.8065 256.379 78.5656" stroke="black" stroke-miterlimit="10" stroke-linecap="round" stroke-linejoin="round"/>
<path d="M264.219 34.5934C264.569 40.7689 269.854 45.4845 276.015 45.1341C282.19 44.7837 286.906 39.4988 286.556 33.3379C286.205 27.1623 280.92 22.4468 274.759 22.7971C268.598 23.1475 263.883 28.4325 264.219 34.5934Z" fill="black" stroke="black" stroke-miterlimit="10" stroke-linecap="round" stroke-linejoin="round"/>
<path d="M244.831 123.737L277.781 111.97C277.781 111.97 317.287 177.55 318.703 221.159C318.703 221.159 272.16 220.297 232.085 219.845L244.831 123.737Z" fill="black"/>
<path d="M252.889 142.965H266.16" stroke="white" stroke-miterlimit="10" stroke-linecap="round" stroke-linejoin="round"/>
<path d="M259.532 129.694L271.898 124.555" stroke="white" stroke-miterlimit="10" stroke-linecap="round" stroke-linejoin="round"/>
<path d="M280.351 128.481V142.964" stroke="white" stroke-miterlimit="10" stroke-linecap="round" stroke-linejoin="round"/>
<path d="M274.014 160.455L282.759 151.403" stroke="white" stroke-miterlimit="10" stroke-linecap="round" stroke-linejoin="round"/>
<path d="M256.51 158.644L255.006 169.506" stroke="white" stroke-miterlimit="10" stroke-linecap="round" stroke-linejoin="round"/>
<path d="M267.678 173.739L280.351 176.148" stroke="white" stroke-miterlimit="10" stroke-linecap="round" stroke-linejoin="round"/>
<path d="M290.906 174.937L299.359 166.499" stroke="white" stroke-miterlimit="10" stroke-linecap="round" stroke-linejoin="round"/>
<path d="M274.014 186.106L282.759 193.041" stroke="white" stroke-miterlimit="10" stroke-linecap="round" stroke-linejoin="round"/>
<path d="M282.76 207.727H296.03" stroke="white" stroke-miterlimit="10" stroke-linecap="round" stroke-linejoin="round"/>
<path d="M289.402 194.441L301.768 189.317" stroke="white" stroke-miterlimit="10" stroke-linecap="round" stroke-linejoin="round"/>
<path d="M310.206 193.245V207.727" stroke="white" stroke-miterlimit="10" stroke-linecap="round" stroke-linejoin="round"/>
<path d="M303.885 225.217L312.63 216.166" stroke="white" stroke-miterlimit="10" stroke-linecap="round" stroke-linejoin="round"/>
<path d="M286.38 223.406L284.876 234.268" stroke="white" stroke-miterlimit="10" stroke-linecap="round" stroke-linejoin="round"/>
<path d="M297.549 238.501L310.206 240.91" stroke="white" stroke-miterlimit="10" stroke-linecap="round" stroke-linejoin="round"/>
<path d="M320.776 239.699L329.214 231.26" stroke="white" stroke-miterlimit="10" stroke-linecap="round" stroke-linejoin="round"/>
<path d="M303.885 250.867L312.63 257.802" stroke="white" stroke-miterlimit="10" stroke-linecap="round" stroke-linejoin="round"/>
<path d="M223.078 180.223H236.348" stroke="white" stroke-miterlimit="10" stroke-linecap="round" stroke-linejoin="round"/>
<path d="M229.706 166.951L242.071 161.812" stroke="white" stroke-miterlimit="10" stroke-linecap="round" stroke-linejoin="round"/>
<path d="M244.188 197.727L252.933 188.675" stroke="white" stroke-miterlimit="10" stroke-linecap="round" stroke-linejoin="round"/>
<path d="M226.698 195.917L225.18 206.778" stroke="white" stroke-miterlimit="10" stroke-linecap="round" stroke-linejoin="round"/>
<path d="M237.852 210.997L250.524 213.406" stroke="white" stroke-miterlimit="10" stroke-linecap="round" stroke-linejoin="round"/>
<path d="M261.08 212.209L269.533 203.756" stroke="white" stroke-miterlimit="10" stroke-linecap="round" stroke-linejoin="round"/>
<path d="M244.188 223.363L252.933 230.298" stroke="white" stroke-miterlimit="10" stroke-linecap="round" stroke-linejoin="round"/>
<path d="M228.523 226.865C225.866 230.646 222.64 234.033 218.786 236.574C186.623 257.83 151.278 207.171 112.809 194.761C107.495 193.053 102.765 191.593 101.071 192.922C98.2098 195.155 94.5892 198.528 93.2461 197.944C91.6985 197.287 96.0491 192.498 98.8522 188.761C98.8522 188.761 90.2678 198.849 88.7495 197.652C86.91 196.177 96.6331 184.673 96.6331 184.673C96.6331 184.673 85.3478 196.017 84.2967 193.33C83.2455 190.644 94.633 180.979 94.633 180.979C94.633 180.979 84.0777 189.447 82.1944 187.622C80.6614 186.133 89.3043 179.884 97.5383 175.402C102.414 172.745 107.977 171.65 113.481 172.38C118.736 173.081 126.211 174.891 136.358 179.096C136.358 179.096 173.718 196.25 204.259 212.178L235.94 158.409C239.838 151.781 247.167 147.751 254.817 148.467C260.803 149.021 266.861 151.664 268.832 159.504C270.219 165.066 268.803 170.95 265.46 175.607L228.523 226.865Z" fill="white" stroke="black" stroke-miterlimit="10" stroke-linecap="round" stroke-linejoin="round"/>
<path d="M205.529 197.696L242.115 223.552C242.115 223.552 300.498 150.029 273.533 132.277C248.086 115.531 205.529 197.696 205.529 197.696Z" fill="black" stroke="black" stroke-miterlimit="10" stroke-linecap="round" stroke-linejoin="round"/>
<path d="M252.889 142.962H266.16" stroke="white" stroke-miterlimit="10" stroke-linecap="round" stroke-linejoin="round"/>
<path d="M259.532 129.691L271.898 124.552" stroke="white" stroke-miterlimit="10" stroke-linecap="round" stroke-linejoin="round"/>
<path d="M280.351 128.479V142.962" stroke="white" stroke-miterlimit="10" stroke-linecap="round" stroke-linejoin="round"/>
<path d="M274.014 160.452L282.759 151.4" stroke="white" stroke-miterlimit="10" stroke-linecap="round" stroke-linejoin="round"/>
<path d="M256.51 158.641L255.006 169.503" stroke="white" stroke-miterlimit="10" stroke-linecap="round" stroke-linejoin="round"/>
<path d="M267.678 173.736L280.35 176.145" stroke="white" stroke-miterlimit="10" stroke-linecap="round" stroke-linejoin="round"/>
<path d="M290.906 174.934L299.359 166.495" stroke="white" stroke-miterlimit="10" stroke-linecap="round" stroke-linejoin="round"/>
<path d="M274.014 186.102L282.759 193.037" stroke="white" stroke-miterlimit="10" stroke-linecap="round" stroke-linejoin="round"/>
<path d="M282.76 207.725H296.03" stroke="white" stroke-miterlimit="10" stroke-linecap="round" stroke-linejoin="round"/>
<path d="M289.402 194.439L301.768 189.315" stroke="white" stroke-miterlimit="10" stroke-linecap="round" stroke-linejoin="round"/>
<path d="M310.206 193.242V207.724" stroke="white" stroke-miterlimit="10" stroke-linecap="round" stroke-linejoin="round"/>
<path d="M303.885 225.215L312.63 216.164" stroke="white" stroke-miterlimit="10" stroke-linecap="round" stroke-linejoin="round"/>
<path d="M286.38 223.404L284.876 234.266" stroke="white" stroke-miterlimit="10" stroke-linecap="round" stroke-linejoin="round"/>
<path d="M297.549 238.5L310.206 240.908" stroke="white" stroke-miterlimit="10" stroke-linecap="round" stroke-linejoin="round"/>
<path d="M320.776 239.697L329.214 231.258" stroke="white" stroke-miterlimit="10" stroke-linecap="round" stroke-linejoin="round"/>
<path d="M303.885 250.865L312.63 257.8" stroke="white" stroke-miterlimit="10" stroke-linecap="round" stroke-linejoin="round"/>
<path d="M223.078 180.219H236.348" stroke="white" stroke-miterlimit="10" stroke-linecap="round" stroke-linejoin="round"/>
<path d="M229.706 166.949L242.071 161.81" stroke="white" stroke-miterlimit="10" stroke-linecap="round" stroke-linejoin="round"/>
<path d="M244.188 197.724L252.933 188.672" stroke="white" stroke-miterlimit="10" stroke-linecap="round" stroke-linejoin="round"/>
<path d="M226.698 195.914L225.18 206.775" stroke="white" stroke-miterlimit="10" stroke-linecap="round" stroke-linejoin="round"/>
<path d="M237.852 210.994L250.524 213.403" stroke="white" stroke-miterlimit="10" stroke-linecap="round" stroke-linejoin="round"/>
<path d="M261.08 212.206L269.533 203.753" stroke="white" stroke-miterlimit="10" stroke-linecap="round" stroke-linejoin="round"/>
<path d="M244.188 223.36L252.933 230.295" stroke="white" stroke-miterlimit="10" stroke-linecap="round" stroke-linejoin="round"/>
</svg>
