<?xml version="1.0" encoding="utf-8"?>
<!-- Generator: Adobe Illustrator 25.0.0, SVG Export Plug-In . SVG Version: 6.00 Build 0)  -->
<svg version="1.1" id="Layer_1" xmlns="http://www.w3.org/2000/svg" xmlns:xlink="http://www.w3.org/1999/xlink" x="0px" y="0px"
	 viewBox="0 0 700 700" style="enable-background:new 0 0 700 700;" xml:space="preserve">
<style type="text/css">
	.st0{fill:#FA6541;}
</style>
<g>
	<path class="st0" d="M139.16,107.23c5.99-3.98,9.96-10.78,9.96-18.5c0-12.24-9.96-22.2-22.2-22.2c-12.24,0-22.2,9.96-22.2,22.2
		c0,7.72,3.96,14.52,9.96,18.5c-13.56,5-23.28,18.02-23.28,33.3h5.92c0-16.32,13.28-29.6,29.6-29.6c16.32,0,29.6,13.28,29.6,29.6
		h5.92C162.43,125.25,152.72,112.24,139.16,107.23z M126.91,105.01c-8.98,0-16.28-7.3-16.28-16.28s7.3-16.28,16.28-16.28
		c8.98,0,16.28,7.3,16.28,16.28S135.89,105.01,126.91,105.01z"/>
</g>
</svg>
