<svg width="22" height="22" viewBox="0 0 22 22" fill="none" xmlns="http://www.w3.org/2000/svg">
<g clip-path="url(#clip0_334_144)">
<path d="M5.02331 1.82543C4.94214 1.72102 4.83968 1.63507 4.72274 1.57329C4.6058 1.51152 4.47705 1.47533 4.34505 1.46714C4.21305 1.45894 4.08082 1.47893 3.95713 1.52577C3.83345 1.57261 3.72115 1.64523 3.62769 1.73881L2.20594 3.16193C1.54181 3.82743 1.29706 4.76931 1.58719 5.59569C2.79133 9.01613 4.7501 12.1216 7.31819 14.6817C9.87834 17.2498 12.9838 19.2085 16.4042 20.4127C17.2306 20.7028 18.1725 20.4581 18.838 19.794L20.2597 18.3722C20.3533 18.2787 20.4259 18.1664 20.4727 18.0428C20.5196 17.9191 20.5396 17.7868 20.5314 17.6548C20.5232 17.5228 20.487 17.3941 20.4252 17.2772C20.3634 17.1602 20.2775 17.0578 20.1731 16.9766L17.0009 14.5098C16.8894 14.4233 16.7597 14.3633 16.6215 14.3342C16.4834 14.3051 16.3404 14.3078 16.2034 14.3421L13.1922 15.0942C12.7903 15.1947 12.3692 15.1893 11.9699 15.0787C11.5706 14.9681 11.2068 14.756 10.9138 14.4631L7.53682 11.0847C7.24362 10.7919 7.03127 10.4281 6.92042 10.0288C6.80958 9.62955 6.80403 9.20838 6.90432 8.80632L7.65782 5.79506C7.69207 5.65811 7.69476 5.51516 7.6657 5.37701C7.63664 5.23886 7.57659 5.10912 7.49007 4.99756L5.02331 1.82543ZM2.58956 0.702055C2.83018 0.46136 3.11925 0.274609 3.43758 0.154201C3.75591 0.0337932 4.09621 -0.0175154 4.43589 0.00368199C4.77557 0.0248794 5.10685 0.118098 5.40774 0.277147C5.70863 0.436197 5.97224 0.657438 6.18107 0.926181L8.64782 4.09694C9.10019 4.67856 9.25969 5.43619 9.08094 6.15119L8.32882 9.16244C8.28993 9.31841 8.29203 9.48178 8.33492 9.63669C8.3778 9.79161 8.46001 9.9328 8.57357 10.0466L11.9519 13.4249C12.0658 13.5387 12.2073 13.6211 12.3625 13.664C12.5176 13.7069 12.6813 13.7088 12.8374 13.6697L15.8473 12.9176C16.2002 12.8294 16.5685 12.8225 16.9243 12.8975C17.2802 12.9726 17.6144 13.1275 17.9016 13.3507L21.0723 15.8175C22.2122 16.7043 22.3167 18.3887 21.2965 19.4076L19.8747 20.8293C18.8572 21.8468 17.3365 22.2937 15.9188 21.7946C12.2904 20.5179 8.99607 18.4407 6.28007 15.7171C3.55659 13.0015 1.4794 9.70758 0.202561 6.07969C-0.29519 4.66344 0.151686 3.14131 1.16919 2.12381L2.59094 0.702055H2.58956Z" fill="black"/>
</g>
<defs>
<clipPath id="clip0_334_144">
<rect width="22" height="22" fill="white"/>
</clipPath>
</defs>
</svg>
