<svg width="262" height="223" viewBox="0 0 262 223" fill="none" xmlns="http://www.w3.org/2000/svg">
<path d="M87.441 101.586C86.4436 101.382 85.3555 101.564 84.4034 101.223C82.6126 100.587 82.0686 98.6342 81.8873 96.9537C81.5699 94.0016 81.6832 90.9813 81.6152 88.0292C81.4792 81.9887 81.1165 76.0163 80.5952 69.9757C80.5272 69.2718 79.5298 69.2491 79.4844 69.9757C78.8724 78.378 78.691 86.7121 78.5777 95.137C78.5324 97.9302 78.6457 100.95 80.6405 103.131C82.4313 105.061 85.4688 106.219 87.8717 104.879C89.1637 104.152 88.9597 101.882 87.441 101.586Z" fill="#333333"/>
<path d="M104.805 104.97C104.238 107.491 104.193 109.829 102.878 112.146C101.835 113.985 99.7951 115.37 99.047 117.301C98.8884 117.709 99.2964 118.05 99.6364 118.095C102.13 118.345 104.623 115.348 105.779 113.44C107.276 111.01 108.432 107.808 107.684 104.97C107.321 103.562 105.122 103.494 104.805 104.97Z" fill="#333333"/>
<path d="M102.515 82.3746C103.921 83.3057 105.711 82.8288 106.505 81.3527C107.117 80.2173 107.003 78.4006 106.346 77.2879C105.53 75.948 103.694 75.4712 102.425 76.4476C101.404 77.2197 101.019 78.8775 101.314 80.1038C101.336 80.1946 101.359 80.2854 101.404 80.3763C101.427 81.1711 101.812 81.8978 102.515 82.3746Z" fill="#333333"/>
<path d="M62.7102 76.4704C61.7128 77.0835 61.3274 78.3779 61.3501 79.4906C61.3501 79.7859 61.4181 80.0811 61.5314 80.3536C61.5767 80.9213 61.8034 81.4663 62.2115 81.8751C63.4356 83.1013 65.521 82.8288 66.3824 81.3301C67.0171 80.24 66.9491 78.4688 66.2917 77.4242C65.5664 76.2433 63.9343 75.6983 62.7102 76.4704Z" fill="#333333"/>
<path d="M142.253 80.2854C143.568 78.1962 147.399 78.2644 148.464 80.5352C149.303 82.3065 147.399 85.3949 150.527 85.5539C151.252 85.5993 151.91 85.1224 152.295 84.532C154.426 81.2165 152.204 76.7656 148.759 75.4485C145.449 74.1768 141.12 75.7437 140.508 79.5361C140.349 80.5807 141.641 81.2392 142.253 80.2854Z" fill="#333333"/>
<path d="M108.522 58.9847C106.89 58.5987 104.827 58.258 102.855 58.3489C101.314 58.2353 99.8176 58.417 98.5482 59.0074C95.488 60.4608 95.2613 64.0715 97.8228 66.1153C101.087 68.7041 116.615 72.1331 115.98 64.4575C115.708 61.1194 111.242 59.6433 108.522 58.9847Z" fill="#333333"/>
<path d="M69.2612 59.7567C67.8784 59.0527 66.1556 59.0073 64.4782 59.2571C63.7075 59.2798 62.9594 59.3707 62.302 59.4615C59.8765 59.8248 55.7736 60.9148 55.2522 63.8216C54.0508 70.5207 66.9717 68.3179 69.8052 66.0925C72.0947 64.3212 71.9134 61.0965 69.2612 59.7567Z" fill="#333333"/>
<path d="M91.136 21.3335C90.8413 20.6295 90.3653 20.0164 89.9119 19.4032C89.1412 18.3586 88.2798 17.3822 87.3731 16.4738C86.2623 15.3384 85.0382 14.2938 83.7462 13.34C83.9955 14.4527 84.2902 15.5655 84.6755 16.6328C85.3783 18.563 87.033 23.2864 89.1412 24.1721C92.3147 25.5119 91.5667 22.4235 91.136 21.3335ZM258.405 208.295C257.022 204.548 255.345 200.892 253.304 197.44C249.587 191.172 244.713 185.609 238.955 181.135C225.128 170.371 206.903 166.034 189.652 165.897C184.053 165.852 178.477 166.306 172.946 167.169C168.457 167.873 163.606 168.804 159.299 170.553C159.209 165.92 158.257 161.106 157.826 156.7C157.146 149.956 156.466 143.234 155.718 136.49C154.38 124.159 153.519 111.646 151.229 99.4289C153.134 98.7704 154.924 97.7939 156.488 96.5449C161.339 92.6844 163.402 86.5758 162.314 80.5125C161.294 74.8126 157.486 69.953 152.113 67.8865C152.907 60.3699 152.998 52.8533 153.066 45.3139C153.111 37.593 153.247 29.5995 152.204 21.9239C151.297 15.3157 147.693 7.91261 140.485 6.55008C135.951 5.68715 130.307 8.84367 129.196 13.2719C122.667 5.41464 112.58 0.872886 102.425 0.123496C97.0071 -0.285262 90.3879 0.14621 86.2397 4.12024C84.4262 5.84611 83.3835 8.29864 83.2701 10.7058C83.3155 10.9783 83.3381 11.2735 83.4061 11.546C86.6477 13.0902 89.4359 15.2702 91.68 18.1997C93.3802 20.4251 95.2843 24.4673 92.0654 26.443C88.5065 28.6003 85.4689 24.1948 84.0408 21.5833C82.4314 18.6538 81.298 15.4292 80.8446 12.1137C79.8472 11.705 78.8725 11.3189 77.9204 10.9329C74.0668 9.38868 70.1452 8.32136 66.0196 7.82177C58.3124 6.868 49.5171 7.70822 43.1474 12.5679C37.4803 16.9053 34.6468 24.0131 36.9136 30.962C38.7951 36.7527 43.238 41.022 48.6557 43.3383C47.9984 53.8751 47.7037 64.4574 47.409 75.017C47.069 87.2343 46.1622 99.7241 48.7011 111.76C53.2121 133.242 72.0267 148.389 93.6522 150.024C93.9922 150.047 94.3322 150.069 94.6496 150.069C94.1055 153.771 94.2869 157.836 94.1509 161.378C93.9922 165.466 93.3121 170.053 93.7655 174.232C90.6826 173.142 87.2144 172.801 84.0635 172.256C79.9606 171.552 75.8349 170.984 71.6867 170.644C62.9821 169.985 54.1868 170.303 45.7089 172.506C31.6092 176.185 19.8444 185.223 11.3439 196.918C6.44752 203.639 1.8912 211.837 0.0777441 220.012C-0.624971 223.146 3.63666 224.191 4.79274 221.307C8.19297 212.837 11.4345 204.866 17.1696 197.622C22.4059 191.013 28.8891 185.336 36.3696 181.43C45.3689 176.73 55.5016 175.185 65.5436 175.185C70.6893 175.185 75.8349 175.64 80.9353 176.162C85.4463 176.593 90.3879 177.888 94.9442 177.456C100.226 190.559 114.824 199.166 128.833 197.985C135.951 197.395 142.57 194.556 148.124 190.105C150.889 187.88 153.315 185.291 155.4 182.407C157.033 180.181 159.458 176.82 159.549 173.8C163.176 173.346 166.803 172.574 170.407 172.052C175.28 171.37 180.177 170.962 185.118 170.848C194.208 170.621 203.344 171.552 212.116 173.891C226.148 177.638 238.955 185.086 247.161 197.326C249.474 200.801 251.446 204.525 252.964 208.408C253.78 210.498 254.483 212.632 255.095 214.812C255.753 217.128 256.002 219.626 257.317 221.67C258.178 223.033 260.649 222.987 260.989 221.193C261.85 217.06 259.81 212.155 258.405 208.295ZM98.4578 5.16485C98.4125 5.18755 98.3672 5.21026 98.3218 5.23297C98.2992 5.21026 98.2538 5.18754 98.2312 5.18754C98.3218 5.16483 98.3898 5.16485 98.4578 5.16485ZM75.2456 29.168C75.3816 29.327 75.5176 29.4859 75.6536 29.6449C75.5856 29.6222 75.5176 29.5995 75.4723 29.5768C75.3816 29.5541 75.2682 29.5313 75.1776 29.5086C75.2229 29.4178 75.2456 29.3043 75.2456 29.168ZM72.5254 34.2094C72.48 34.2321 72.412 34.2321 72.3667 34.2548C72.3667 34.2094 72.344 34.1639 72.344 34.1185C72.3894 34.1639 72.4574 34.1867 72.5254 34.2094ZM151.909 178.387C150.209 180.999 148.124 183.338 145.789 185.359C141.119 189.424 135.135 192.262 128.992 192.989C115.98 194.556 104.42 186.926 97.1657 176.684C97.3018 176.525 97.4151 176.321 97.4831 176.071C98.6392 171.507 98.0045 166.079 98.0498 161.378C98.0498 160.765 98.0725 160.129 98.0951 159.471C100.294 160.084 102.833 159.562 105.009 159.108C108.296 158.426 111.469 157.291 114.507 155.906C120.673 153.09 126.521 148.889 130.715 143.529C130.896 143.28 131.032 143.03 131.1 142.78C131.531 141.349 130.216 139.555 128.425 139.964C123.597 141.054 118.905 142.644 114.031 143.575C108.817 144.574 103.513 145.142 98.2085 145.119C88.1891 145.096 78.5098 142.598 70.0999 137.012C61.1686 131.062 55.2975 122.047 52.804 111.669C50.0612 100.292 50.7866 88.3243 50.9679 76.7429C51.1493 65.9335 51.3533 55.0787 51.1946 44.2466C51.6933 44.4056 52.1693 44.5418 52.6907 44.6554C57.111 45.7 61.6446 45.6773 66.1103 44.996C70.5306 44.3375 76.311 43.2701 80.1192 40.6359C81.774 43.2247 84.4942 45.2458 87.033 46.7219C91 49.0155 95.715 50.1509 100.294 50.2872C104.941 50.4234 109.565 49.2426 113.759 47.2896C116.638 45.9498 120.219 43.8606 122.418 41.1128C123.189 45.8362 125.682 50.7186 127.859 54.4883C130.828 59.5977 134.636 64.4801 139.215 68.2952C137.447 69.1581 135.996 70.4526 135.18 72.2466C134.976 72.7007 135.316 73.3366 135.883 73.1549C140.575 71.7015 144.338 69.7032 149.416 71.0657C154.222 72.3601 157.554 76.4023 158.415 81.2392C159.231 85.8718 157.554 90.5952 153.746 93.4111C151.864 94.8191 149.575 95.7728 147.24 96.0453C145.086 96.3178 142.752 95.3187 140.711 95.9999C139.419 96.4314 139.193 97.7939 139.986 98.7931C141.686 100.973 145.744 100.61 148.192 100.246C148.419 100.201 148.645 100.156 148.895 100.11C149.031 112.441 150.595 124.817 151.66 137.08C152.227 143.643 152.839 150.183 153.451 156.723C153.746 159.902 154.018 163.104 154.358 166.261C154.584 168.395 154.72 170.598 155.106 172.71C153.814 174.368 153.043 176.661 151.909 178.387ZM89.1639 24.1721C92.3147 25.5119 91.5667 22.4235 91.136 21.3335C90.8413 20.6295 90.3653 20.0164 89.9119 19.4032C89.1412 18.3586 88.2798 17.3822 87.3731 16.4738C86.2623 15.3384 85.0382 14.2938 83.7462 13.34C83.9955 14.4527 84.2902 15.5655 84.6755 16.6328C85.4009 18.563 87.0784 23.2864 89.1639 24.1721Z" fill="#333333"/>
</svg>
