<svg width="26" height="26" viewBox="0 0 26 26" fill="none" xmlns="http://www.w3.org/2000/svg">
<g clip-path="url(#clip0_144_52)">
<path d="M25.7628 0.237249C25.8753 0.349914 25.9522 0.493145 25.984 0.64915C26.0158 0.805155 26.001 0.967059 25.9415 1.11475L16.4857 24.7536C16.4023 24.9618 16.2632 25.143 16.0835 25.2771C15.9039 25.4113 15.6907 25.4934 15.4674 25.5142C15.2441 25.535 15.0195 25.4939 14.8181 25.3952C14.6167 25.2966 14.4464 25.1443 14.326 24.9551L9.16179 16.8382L1.04492 11.674C0.855308 11.5537 0.702613 11.3834 0.60368 11.1818C0.504747 10.9803 0.463423 10.7553 0.484267 10.5317C0.505111 10.3081 0.587313 10.0947 0.721803 9.91487C0.856293 9.73506 1.03784 9.5959 1.24642 9.51275L24.8853 0.0601242C25.033 0.000669153 25.1949 -0.0140854 25.3509 0.0176934C25.5069 0.0494722 25.6501 0.126384 25.7628 0.238874V0.237249ZM10.7835 16.3637L15.2702 23.413L22.9613 4.186L10.7835 16.3637ZM21.8124 3.03712L2.58542 10.7282L9.63629 15.2133L21.814 3.03712H21.8124Z" fill="white"/>
</g>
<defs>
<clipPath id="clip0_144_52">
<rect width="26" height="26" fill="white"/>
</clipPath>
</defs>
</svg>
