<svg width="47" height="47" viewBox="0 0 47 47" fill="none" xmlns="http://www.w3.org/2000/svg">
<rect width="47" height="47" rx="23.5" fill="#424141"/>
<g clip-path="url(#clip0_254_24)">
<path d="M19.1108 16.4938C19.0444 16.4084 18.9605 16.3381 18.8649 16.2875C18.7692 16.237 18.6639 16.2074 18.5559 16.2007C18.4478 16.194 18.3397 16.2103 18.2385 16.2487C18.1373 16.287 18.0454 16.3464 17.9689 16.423L16.8057 17.5873C16.2623 18.1318 16.062 18.9025 16.2994 19.5786C17.2846 22.3771 18.8872 24.9179 20.9884 27.0126C23.0831 29.1137 25.6239 30.7163 28.4224 31.7016C29.0985 31.939 29.8692 31.7387 30.4137 31.1953L31.5769 30.0321C31.6535 29.9556 31.7129 29.8637 31.7512 29.7625C31.7895 29.6613 31.8059 29.5532 31.7992 29.4452C31.7925 29.3372 31.7629 29.2318 31.7123 29.1361C31.6618 29.0405 31.5915 28.9566 31.506 28.8902L28.9107 26.872C28.8194 26.8012 28.7132 26.752 28.6002 26.7283C28.4872 26.7045 28.3702 26.7067 28.2582 26.7347L25.7944 27.3501C25.4656 27.4323 25.121 27.4279 24.7943 27.3374C24.4677 27.2469 24.17 27.0734 23.9303 26.8337L21.1673 24.0696C20.9274 23.83 20.7537 23.5324 20.663 23.2057C20.5723 22.879 20.5677 22.5344 20.6498 22.2055L21.2663 19.7417C21.2943 19.6297 21.2965 19.5127 21.2727 19.3997C21.249 19.2866 21.1998 19.1805 21.129 19.0892L19.1108 16.4938ZM17.1195 15.5747C17.3164 15.3778 17.5529 15.225 17.8134 15.1265C18.0738 15.028 18.3523 14.986 18.6302 15.0033C18.9081 15.0207 19.1791 15.0969 19.4253 15.2271C19.6715 15.3572 19.8872 15.5382 20.058 15.7581L22.0763 18.3523C22.4464 18.8282 22.5769 19.4481 22.4307 20.0331L21.8153 22.4968C21.7835 22.6244 21.7852 22.7581 21.8203 22.8849C21.8554 23.0116 21.9226 23.1271 22.0155 23.2202L24.7797 25.9843C24.8729 26.0774 24.9886 26.1448 25.1155 26.1799C25.2425 26.215 25.3764 26.2166 25.5042 26.1846L27.9668 25.5692C28.2555 25.497 28.5568 25.4914 28.848 25.5528C29.1392 25.6142 29.4126 25.741 29.6475 25.9236L32.2418 27.9418C33.1744 28.6675 33.2599 30.0456 32.4252 30.8792L31.2619 32.0425C30.4294 32.875 29.1852 33.2406 28.0253 32.8322C25.0566 31.7877 22.3612 30.0882 20.139 27.8597C17.9107 25.6379 16.2112 22.9429 15.1665 19.9746C14.7593 18.8158 15.1249 17.5705 15.9574 16.738L17.1207 15.5747H17.1195Z" fill="white"/>
</g>
<defs>
<clipPath id="clip0_254_24">
<rect width="18" height="18" fill="white" transform="translate(15 15)"/>
</clipPath>
</defs>
</svg>
