<svg width="47" height="47" viewBox="0 0 47 47" fill="none" xmlns="http://www.w3.org/2000/svg">
<rect x="0.5" y="0.5" width="46" height="46" rx="23" stroke="url(#paint0_linear_252_942)"/>
<path d="M32.814 14.1736C30.4927 11.8604 27.3976 10.5752 24.1305 10.5752C17.3384 10.5752 11.836 16.0585 11.836 22.827C11.836 24.9689 12.4378 27.1109 13.4695 28.9101L11.75 35.2502L18.2841 33.5367C20.0896 34.4791 22.0671 34.9932 24.1305 34.9932C30.9226 34.9932 36.425 29.5098 36.425 22.7413C36.339 19.5713 35.1354 16.4869 32.814 14.1736ZM30.0628 27.1965C29.8049 27.882 28.6012 28.5674 27.9994 28.6531C27.4835 28.7387 26.7957 28.7387 26.1079 28.5674C25.678 28.396 25.0762 28.2247 24.3884 27.882C21.2933 26.5968 19.3159 23.5124 19.1439 23.2554C18.972 23.084 17.8543 21.6275 17.8543 20.0854C17.8543 18.5432 18.628 17.8577 18.886 17.515C19.1439 17.1723 19.4878 17.1723 19.7457 17.1723C19.9177 17.1723 20.1756 17.1723 20.3476 17.1723C20.5195 17.1723 20.7774 17.0867 21.0354 17.6864C21.2933 18.2861 21.8951 19.8283 21.9811 19.914C22.0671 20.0854 22.0671 20.2567 21.9811 20.4281C21.8951 20.5994 21.8091 20.7708 21.6372 20.9421C21.4652 21.1135 21.2933 21.3705 21.2073 21.4562C21.0354 21.6275 20.8634 21.7989 21.0354 22.0559C21.2073 22.3986 21.8091 23.3411 22.7549 24.1978C23.9585 25.226 24.9043 25.5687 25.2482 25.74C25.5921 25.9114 25.764 25.8257 25.936 25.6544C26.1079 25.483 26.7098 24.7976 26.8817 24.4549C27.0537 24.1122 27.3116 24.1979 27.5695 24.2835C27.8274 24.3692 29.375 25.1403 29.6329 25.3117C29.9768 25.483 30.1488 25.5687 30.2348 25.6544C30.3207 25.9114 30.3207 26.5111 30.0628 27.1965Z" fill="white"/>
<defs>
<linearGradient id="paint0_linear_252_942" x1="1.77731" y1="-30.55" x2="56.0534" y2="-23.6778" gradientUnits="userSpaceOnUse">
<stop offset="0.151042" stop-color="#FDE0A1"/>
<stop offset="0.328125" stop-color="#FF8CC7"/>
<stop offset="0.53125" stop-color="#544AFF"/>
<stop offset="0.75" stop-color="#6897D5"/>
<stop offset="1" stop-color="#7EEFA6"/>
</linearGradient>
</defs>
</svg>
